<?xml version="1.0" encoding="UTF-8" standalone="no"?>
<!-- Created with Inkscape (http://www.inkscape.org/) -->

<svg
   xmlns:dc="http://purl.org/dc/elements/1.1/"
   xmlns:cc="http://creativecommons.org/ns#"
   xmlns:rdf="http://www.w3.org/1999/02/22-rdf-syntax-ns#"
   xmlns:svg="http://www.w3.org/2000/svg"
   xmlns="http://www.w3.org/2000/svg"
   xmlns:xlink="http://www.w3.org/1999/xlink"
   xmlns:sodipodi="http://sodipodi.sourceforge.net/DTD/sodipodi-0.dtd"
   xmlns:inkscape="http://www.inkscape.org/namespaces/inkscape"
   width="204.51906mm"
   height="76.723801mm"
   viewBox="0 0 724.67383 271.85599"
   id="svg6971"
   version="1.1"
   inkscape:version="0.91 r13725"
   sodipodi:docname="HarmonicTrap.svg">
  <defs
     id="defs6973">
    <marker
       inkscape:isstock="true"
       style="overflow:visible"
       id="marker7700"
       refX="0"
       refY="0"
       orient="auto"
       inkscape:stockid="Arrow1Lend">
      <path
         inkscape:connector-curvature="0"
         transform="matrix(-0.8,0,0,-0.8,-10,0)"
         style="fill:#ff0000;fill-opacity:1;fill-rule:evenodd;stroke:#ff0000;stroke-width:1pt;stroke-opacity:1"
         d="M 0,0 5,-5 -12.5,0 5,5 0,0 Z"
         id="path7702" />
    </marker>
    <radialGradient
       inkscape:collect="always"
       xlink:href="#linearGradient5107-5-3-7-70-1-69-6"
       id="radialGradient76092"
       gradientUnits="userSpaceOnUse"
       gradientTransform="matrix(0.00650243,0.05822808,0.04126086,-0.00460767,756.09481,745.6526)"
       cx="410.12195"
       cy="-9746.1689"
       fx="410.12195"
       fy="-9746.1689"
       r="351.52292" />
    <linearGradient
       id="linearGradient5107-5-3-7-70-1-69-6"
       inkscape:collect="always">
      <stop
         id="stop5109-3-3-2-55-8-6-6"
         offset="0"
         style="stop-color:#ff0105;stop-opacity:1;" />
      <stop
         id="stop5111-8-0-3-61-9-1-3"
         offset="1"
         style="stop-color:#000000;stop-opacity:1" />
    </linearGradient>
    <clipPath
       clipPathUnits="userSpaceOnUse"
       id="clipPath75827">
      <rect
         style="color:#000000;display:inline;overflow:visible;visibility:visible;opacity:0.86345382;fill:none;stroke:#ff0000;stroke-width:28.0848732;stroke-linecap:butt;stroke-linejoin:miter;stroke-miterlimit:4;stroke-dasharray:none;stroke-dashoffset:0;stroke-opacity:1;marker:none;enable-background:accumulate"
         id="rect75829"
         width="7794.2686"
         height="5900.3477"
         x="19238.361"
         y="47702.594" />
    </clipPath>
    <clipPath
       clipPathUnits="userSpaceOnUse"
       id="clipPath75827-7">
      <rect
         style="color:#000000;display:inline;overflow:visible;visibility:visible;opacity:0.86345382;fill:none;stroke:#ff0000;stroke-width:28.0848732;stroke-linecap:butt;stroke-linejoin:miter;stroke-miterlimit:4;stroke-dasharray:none;stroke-dashoffset:0;stroke-opacity:1;marker:none;enable-background:accumulate"
         id="rect75829-7"
         width="7794.2686"
         height="5900.3477"
         x="19238.361"
         y="47702.594" />
    </clipPath>
    <linearGradient
       y2="55447.094"
       x2="394.05814"
       y1="46403.566"
       x1="418.30762"
       gradientTransform="matrix(0.0259725,0,0,-0.0259725,346.58809,2212.7153)"
       gradientUnits="userSpaceOnUse"
       id="linearGradient75909"
       xlink:href="#linearGradient76007"
       inkscape:collect="always" />
    <linearGradient
       id="linearGradient76007"
       inkscape:collect="always">
      <stop
         id="stop76009"
         offset="0"
         style="stop-color:#800000;stop-opacity:1" />
      <stop
         id="stop76011"
         offset="1"
         style="stop-color:#ffff00;stop-opacity:1" />
    </linearGradient>
    <marker
       inkscape:stockid="Arrow2Lstart"
       orient="auto"
       refY="0"
       refX="0"
       id="Arrow2Lstart"
       style="overflow:visible">
      <path
         inkscape:connector-curvature="0"
         id="path7136"
         style="fill-rule:evenodd;stroke-width:0.625;stroke-linejoin:round"
         d="M 8.7185878,4.0337352 -2.2072895,0.01601326 8.7185884,-4.0017078 c -1.7454984,2.3720609 -1.7354408,5.6174519 -6e-7,8.035443 z"
         transform="matrix(1.1,0,0,1.1,1.1,0)" />
    </marker>
    <marker
       inkscape:stockid="Arrow2Lend"
       orient="auto"
       refY="0"
       refX="0"
       id="Arrow2Lend"
       style="overflow:visible">
      <path
         inkscape:connector-curvature="0"
         id="path7139"
         style="fill-rule:evenodd;stroke-width:0.625;stroke-linejoin:round"
         d="M 8.7185878,4.0337352 -2.2072895,0.01601326 8.7185884,-4.0017078 c -1.7454984,2.3720609 -1.7354408,5.6174519 -6e-7,8.035443 z"
         transform="matrix(-1.1,0,0,-1.1,-1.1,0)" />
    </marker>
    <marker
       inkscape:stockid="Arrow1Lend"
       orient="auto"
       refY="0"
       refX="0"
       id="marker148016-1-4-2"
       style="overflow:visible"
       inkscape:isstock="true"
       inkscape:collect="always">
      <path
         id="path148018-8-3-4"
         d="M 0,0 5,-5 -12.5,0 5,5 0,0 Z"
         style="fill:#ff0000;fill-opacity:1;fill-rule:evenodd;stroke:#ff0000;stroke-width:1pt;stroke-opacity:1"
         transform="matrix(-0.8,0,0,-0.8,-10,0)"
         inkscape:connector-curvature="0" />
    </marker>
    <radialGradient
       r="351.52292"
       fy="-9746.1689"
       fx="410.12195"
       cy="-9746.1689"
       cx="410.12195"
       gradientTransform="matrix(-0.00635608,0.05691753,-0.0403322,-0.00450396,-257.86007,920.7612)"
       gradientUnits="userSpaceOnUse"
       id="radialGradient45692-03"
       xlink:href="#linearGradient5107-5-3-7-70-1-69-6"
       inkscape:collect="always" />
    <linearGradient
       y2="54186.422"
       x2="394.05814"
       y1="46403.566"
       x1="418.30762"
       gradientTransform="matrix(0.0259725,0,0,0.0259725,119.6241,-366.71133)"
       gradientUnits="userSpaceOnUse"
       id="linearGradient75510"
       xlink:href="#linearGradient45537-67"
       inkscape:collect="always" />
    <linearGradient
       inkscape:collect="always"
       id="linearGradient45537-67">
      <stop
         style="stop-color:#003cff;stop-opacity:1"
         offset="0"
         id="stop45539-3" />
      <stop
         style="stop-color:#000000;stop-opacity:1"
         offset="1"
         id="stop45541-5" />
    </linearGradient>
    <marker
       inkscape:stockid="Arrow2Lend"
       orient="auto"
       refY="0"
       refX="0"
       id="Arrow2Lend-17-1"
       style="overflow:visible">
      <path
         id="path7139-9-0"
         style="fill-rule:evenodd;stroke-width:0.625;stroke-linejoin:round"
         d="M 8.7185878,4.0337352 -2.2072895,0.01601326 8.7185884,-4.0017078 c -1.7454984,2.3720609 -1.7354408,5.6174519 -6e-7,8.035443 z"
         transform="matrix(-1.1,0,0,-1.1,-1.1,0)"
         inkscape:connector-curvature="0" />
    </marker>
    <marker
       inkscape:stockid="Arrow2Lend"
       orient="auto"
       refY="0"
       refX="0"
       id="marker6911"
       style="overflow:visible">
      <path
         id="path6913"
         style="fill-rule:evenodd;stroke-width:0.625;stroke-linejoin:round"
         d="M 8.7185878,4.0337352 -2.2072895,0.01601326 8.7185884,-4.0017078 c -1.7454984,2.3720609 -1.7354408,5.6174519 -6e-7,8.035443 z"
         transform="matrix(-1.1,0,0,-1.1,-1.1,0)"
         inkscape:connector-curvature="0" />
    </marker>
    <marker
       inkscape:stockid="Arrow1Lend"
       orient="auto"
       refY="0"
       refX="0"
       id="marker6915"
       style="overflow:visible"
       inkscape:isstock="true">
      <path
         id="path6917"
         d="M 0,0 5,-5 -12.5,0 5,5 0,0 Z"
         style="fill:#ff0000;fill-opacity:1;fill-rule:evenodd;stroke:#ff0000;stroke-width:1pt;stroke-opacity:1"
         transform="matrix(-0.8,0,0,-0.8,-10,0)"
         inkscape:connector-curvature="0" />
    </marker>
    <marker
       inkscape:stockid="Arrow2Lend"
       orient="auto"
       refY="0"
       refX="0"
       id="Arrow2Lend-2"
       style="overflow:visible">
      <path
         inkscape:connector-curvature="0"
         id="path7139-1"
         style="fill-rule:evenodd;stroke-width:0.625;stroke-linejoin:round"
         d="M 8.7185878,4.0337352 -2.2072895,0.01601326 8.7185884,-4.0017078 c -1.7454984,2.3720609 -1.7354408,5.6174519 -6e-7,8.035443 z"
         transform="matrix(-1.1,0,0,-1.1,-1.1,0)" />
    </marker>
    <clipPath
       clipPathUnits="userSpaceOnUse"
       id="clipPath4341">
      <rect
         style="opacity:1;fill:#000080;fill-opacity:1;stroke:none;stroke-width:3;stroke-miterlimit:4;stroke-dasharray:none;stroke-dashoffset:0;stroke-opacity:1"
         id="rect4343"
         width="50.589081"
         height="68.065308"
         x="472.33228"
         y="1146.3027" />
    </clipPath>
  </defs>
  <sodipodi:namedview
     id="base"
     pagecolor="#ffffff"
     bordercolor="#666666"
     borderopacity="1.0"
     inkscape:pageopacity="0.0"
     inkscape:pageshadow="2"
     inkscape:zoom="6.1500816"
     inkscape:cx="511.41236"
     inkscape:cy="219.95628"
     inkscape:document-units="px"
     inkscape:current-layer="layer1"
     showgrid="false"
     showborder="true"
     inkscape:window-width="1920"
     inkscape:window-height="1017"
     inkscape:window-x="-8"
     inkscape:window-y="-8"
     inkscape:window-maximized="1"
     fit-margin-top="0"
     fit-margin-left="0"
     fit-margin-right="0"
     fit-margin-bottom="0" />
  <metadata
     id="metadata6976">
    <rdf:RDF>
      <cc:Work
         rdf:about="">
        <dc:format>image/svg+xml</dc:format>
        <dc:type
           rdf:resource="http://purl.org/dc/dcmitype/StillImage" />
        <dc:title></dc:title>
      </cc:Work>
    </rdf:RDF>
  </metadata>
  <g
     inkscape:label="Layer 1"
     inkscape:groupmode="layer"
     id="layer1"
     transform="translate(-11.511714,-749.35374)">
    <path
       style="display:inline;fill:none;stroke:#ff0000;stroke-width:0.46661738;stroke-linecap:butt;stroke-linejoin:miter;stroke-miterlimit:4;stroke-dasharray:none;stroke-opacity:1;marker-end:url(#marker7700)"
       d="m 420.13976,822.56839 -31.15872,-0.1729"
       id="path148080-3-1-7-3"
       inkscape:connector-curvature="0" />
    <path
       style="fill:none;stroke:#000000;stroke-width:2.59724998;stroke-linecap:butt;stroke-linejoin:miter;stroke-miterlimit:4;stroke-dasharray:none;stroke-opacity:1;marker-end:url(#Arrow2Lend-17-1)"
       d="m 374.00468,830.82824 c 54.54223,48.5294 54.79102,90.06724 57.58497,105.67099"
       id="path74651"
       inkscape:connector-curvature="0"
       sodipodi:nodetypes="cc" />
    <path
       style="fill:none;stroke:#000000;stroke-width:2.59724998;stroke-linecap:butt;stroke-linejoin:miter;stroke-miterlimit:4;stroke-dasharray:none;stroke-opacity:1;marker-end:url(#Arrow2Lend-17-1)"
       d="m 338.28998,831.43041 c -54.54222,48.52939 -54.79102,90.06716 -57.58497,105.67093"
       id="path74651-6"
       inkscape:connector-curvature="0"
       sodipodi:nodetypes="cc" />
    <flowRoot
       xml:space="preserve"
       id="flowRoot9936-1"
       style="font-style:normal;font-weight:normal;font-size:31.91344833px;line-height:125%;font-family:Sans;letter-spacing:0px;word-spacing:0px;fill:#000000;fill-opacity:1;stroke:none"
       transform="matrix(0.60240361,0,0,0.60240361,7326.4968,-2227.5862)"><flowRegion
         id="flowRegion9938-3"><rect
           id="rect9940-5"
           width="367.46057"
           height="136.77193"
           x="-11138.917"
           y="4956.5659" /></flowRegion><flowPara
         id="flowPara9942-6"
         style="font-size:31.90493774px">Electric Field</flowPara></flowRoot>    <flowRoot
       xml:space="preserve"
       id="flowRoot9952-4"
       style="font-style:normal;font-weight:normal;font-size:34.41567612px;line-height:125%;font-family:Sans;letter-spacing:0px;word-spacing:0px;fill:#000000;fill-opacity:1;stroke:none"
       transform="matrix(0.60240361,0,0,0.60240361,7326.4968,-2227.5862)"><flowRegion
         id="flowRegion9954-7"><rect
           id="rect9956-0"
           width="264.44098"
           height="82.423157"
           x="-11295.358"
           y="5188.2847"
           style="font-size:34.41567612px" /></flowRegion><flowPara
         id="flowPara9958-7">Direction</flowPara></flowRoot>    <path
       inkscape:connector-curvature="0"
       style="color:#000000;display:inline;overflow:visible;visibility:visible;fill:url(#linearGradient75510);fill-opacity:1;stroke:#000000;stroke-width:2.59724998;stroke-linecap:butt;stroke-linejoin:miter;stroke-miterlimit:4;stroke-dasharray:none;stroke-dashoffset:0;stroke-opacity:1;marker:none;enable-background:accumulate"
       d="m 62.995147,826.5913 c 0.115661,0.6868 0.231926,2.48714 0.346984,2.18173 0.151806,-0.39964 0.303009,2.78719 0.454213,2.39027 0.151204,-0.39698 0.302407,2.76744 0.45361,2.37323 0.151203,-0.39428 0.303009,2.74937 0.454212,2.35781 0.151806,-0.39157 0.302406,2.72961 0.454212,2.34076 0.151203,-0.38885 0.302407,2.71153 0.453611,2.32533 0.151203,-0.38614 0.302406,2.69263 0.453609,2.30914 0.151203,-0.38349 0.303009,2.67365 0.454212,2.29286 0.151806,-0.38077 0.302408,2.6548 0.453611,2.27667 0.151805,-0.37807 0.302406,2.63587 0.454212,2.26046 0.151203,-0.37542 0.302406,2.61768 0.453609,2.24498 0.151204,-0.37277 0.30301,2.59792 0.454213,2.22793 0.151204,-0.37006 0.302407,2.57907 0.454212,2.21173 0.151204,-0.36736 0.301804,2.56093 0.45361,2.1963 0.151203,-0.36464 0.302407,2.54202 0.45361,2.1801 0.151204,-0.36199 0.303009,2.52304 0.454213,2.16377 0.151203,-0.35928 0.302406,2.50341 0.453609,2.14678 0.151806,-0.3565 0.30301,2.48606 0.454213,2.13221 0.151203,-0.35391 0.302406,2.4663 0.45361,2.11516 0.151203,-0.35126 0.303009,2.44738 0.454212,2.0989 0.151805,-0.3485 0.302407,2.42846 0.454213,2.08268 0.151203,-0.34583 0.301804,2.41034 0.453609,2.06721 0.151203,-0.34312 0.302407,2.39064 0.453611,2.05022 0.151203,-0.34047 0.303009,2.37251 0.454212,2.03481 0.151203,-0.33772 0.302406,2.35358 0.453609,2.01853 0.151806,-0.33506 0.302408,2.33467 0.454213,2.00233 0.151204,-0.33241 0.302407,2.31576 0.45361,1.98606 0.151203,-0.32963 0.303009,2.29685 0.454212,1.96986 0.151203,-0.32698 0.302406,2.27787 0.45361,1.95359 0.151806,-0.32427 0.302407,2.25902 0.454213,1.9374 0.151203,-0.32157 0.302406,2.24088 0.453609,1.92196 0.151203,-0.31891 0.303009,2.22112 0.454213,1.90493 0.151203,-0.31621 0.302406,2.20305 0.45361,1.88949 0.151805,-0.31349 0.302406,2.18408 0.454212,1.8733 0.151203,-0.31084 0.302406,2.16437 0.45361,1.85618 0.151203,-0.30813 0.303009,2.14625 0.454212,1.84083 0.151203,-0.30542 0.302407,2.12732 0.45361,1.82456 0.151806,-0.30277 0.302407,2.1092 0.454212,1.80914 0.151204,-0.30006 0.302407,2.0895 0.45361,1.79209 0.151204,-0.29735 0.303009,2.07058 0.454212,1.77588 0.151204,-0.29469 0.302407,2.05245 0.453611,1.76047 0.151806,-0.29199 0.302406,2.03269 0.454212,1.74342 0.151203,-0.28934 0.302406,2.01455 0.453609,1.72799 0.151204,-0.28669 0.303009,1.99565 0.454213,1.71173 0.151204,-0.28391 0.302407,1.97672 0.45361,1.69552 0.151806,-0.28126 0.302406,1.95781 0.454212,1.67926 0.151203,-0.27855 0.302406,1.9389 0.453611,1.66306 0.151203,-0.27584 0.303009,1.91998 0.454212,1.64685 0.151203,-0.27319 0.302406,1.901 0.453609,1.63053 0.151806,-0.27042 0.302407,1.88293 0.454212,1.61522 0.151204,-0.26782 0.302408,1.86318 0.453611,1.59812 0.151203,-0.26512 0.303009,1.84504 0.454212,1.58263 0.151203,-0.26234 0.302406,1.82619 0.453609,1.56649 0.151806,-0.25963 0.302408,1.80643 0.454213,1.54945 0.151204,-0.25705 0.302407,1.78829 0.45361,1.53402 0.151203,-0.2544 0.303009,1.76938 0.454212,1.51775 0.151203,-0.25168 0.302406,1.75131 0.45361,1.50233 0.151805,-0.24891 0.302407,1.73155 0.454213,1.48529 0.151203,-0.2462 0.302406,1.71264 0.453609,1.46908 0.151203,-0.24355 0.303009,1.6945 0.454212,1.45367 0.151203,-0.24091 0.302407,1.67473 0.453611,1.4366 0.151805,-0.23818 0.302406,1.65667 0.454212,1.42119 0.151203,-0.23553 0.302406,1.6377 0.453609,1.40493 0.151204,-0.23277 0.30301,1.61879 0.454213,1.38872 0.151203,-0.23011 0.302407,1.59987 0.45361,1.37246 0.151806,-0.22741 0.302406,1.58101 0.454212,1.35626 0.151203,-0.2247 0.302407,1.56202 0.45361,1.34004 0.151204,-0.22204 0.303009,1.54312 0.454212,1.32378 0.151204,-0.21933 0.302407,1.52498 0.45361,1.30836 0.151806,-0.21662 0.302407,1.50523 0.454213,1.29131 0.151203,-0.21397 0.302406,1.48716 0.45361,1.27589 0.151203,-0.21126 0.303008,1.46824 0.454212,1.25969 0.151203,-0.20855 0.302407,1.44932 0.45361,1.24342 0.151806,-0.2059 0.302406,1.43041 0.454212,1.22722 0.151203,-0.20326 0.302407,1.41143 0.45361,1.21095 0.151203,-0.20048 0.303009,1.39258 0.454213,1.19474 0.151203,-0.19782 0.302406,1.37361 0.453609,1.17849 0.151806,-0.19512 0.302407,1.35469 0.454212,1.16228 0.151204,-0.19241 0.302408,1.33655 0.453611,1.14685 0.151203,-0.18976 0.303009,1.31762 0.45421,1.13062 0.1512,-0.18707 0.30241,1.2979 0.45361,1.1136 0.15181,-0.1844 0.30241,1.2798 0.454211,1.0981 0.1512,-0.1816 0.30181,1.2609 0.45361,1.0819 0.15121,-0.1789 0.30301,1.2419 0.45422,1.0657 0.1512,-0.1763 0.3024,1.223 0.4536,1.0495 0.15121,-0.1736 0.30242,1.2041 0.45422,1.0332 0.1512,-0.1709 0.3024,1.186 0.4536,1.0178 0.15121,-0.1683 0.30302,1.1662 0.45422,1.0008 0.1512,-0.1656 0.3024,1.1481 0.45361,0.9852 0.15181,-0.1627 0.30241,1.1285 0.45361,0.9684 0.15181,-0.1602 0.30241,1.1102 0.45421,0.9528 0.1512,-0.1574 0.30301,1.0914 0.45422,0.9367 0.1512,-0.1548 0.3024,1.0724 0.4536,0.9204 0.15181,-0.1521 0.30241,1.0534 0.45422,0.9041 0.1512,-0.1493 0.3018,1.0346 0.4536,0.888 0.15121,-0.1467 0.30302,1.0157 0.45422,0.8716 0.1512,-0.1439 0.30241,0.9976 0.45361,0.8564 0.1512,-0.1413 0.3024,0.9778 0.4536,0.8392 0.15182,-0.1386 0.30362,0.9596 0.45482,0.8238 0.1512,-0.1359 0.3024,0.9408 0.45362,0.8076 0.1512,-0.1332 0.3024,0.921 0.4536,0.7905 0.1512,-0.1305 0.30241,0.903 0.45422,0.7751 0.1512,-0.1278 0.303,0.884 0.45421,0.7589 0.1512,-0.1251 0.3024,0.8659 0.4536,0.7435 0.15121,-0.1225 0.30242,0.8462 0.45362,0.7264 0.1512,-0.1197 0.3024,0.8272 0.4536,0.7102 0.15182,-0.1171 0.30362,0.8091 0.45482,0.6947 0.1512,-0.1143 0.3024,0.7894 0.45361,0.6777 0.15121,-0.1116 0.30241,0.7714 0.45361,0.6624 0.15121,-0.109 0.30241,0.7523 0.45361,0.646 0.1518,-0.1063 0.30361,0.7327 0.45482,0.629 0.1512,-0.1035 0.3024,0.7146 0.4536,0.6136 0.1512,-0.1009 0.30242,0.6965 0.45362,0.5982 0.1512,-0.098 0.3024,0.6767 0.45361,0.5812 0.1518,-0.096 0.30361,0.6577 0.45481,0.5648 0.1512,-0.093 0.30241,0.6389 0.45361,0.5487 0.1512,-0.09 0.3024,0.6208 0.45361,0.5332 0.15121,-0.087 0.30241,0.6018 0.45361,0.5171 0.1518,-0.085 0.30361,0.582 0.45482,0.5 0.1512,-0.082 0.3024,0.5639 0.4536,0.4845 0.1512,-0.079 0.30241,0.54505 0.45361,0.46825 0.15121,-0.077 0.30241,0.5261 0.45362,0.4521 0.1518,-0.074 0.30361,0.5072 0.45481,0.4359 0.1512,-0.071 0.30241,0.4883 0.45361,0.4196 0.1512,-0.069 0.3024,0.4701 0.4536,0.4042 0.15121,-0.066 0.30242,0.4504 0.45362,0.3872 0.1518,-0.063 0.30361,0.4322 0.45482,0.3716 0.1512,-0.061 0.3024,0.4134 0.4536,0.3556 0.15121,-0.058 0.30241,0.3936 0.45361,0.3384 0.1512,-0.055 0.30241,0.3755 0.45362,0.3231 0.1518,-0.052 0.3036,0.3566 0.45481,0.3067 0.1512,-0.05 0.30241,0.3377 0.45361,0.2906 0.1512,-0.047 0.3024,0.3188 0.45361,0.2744 0.1512,-0.045 0.3024,0.3006 0.45361,0.2589 0.1518,-0.042 0.30361,0.2808 0.45481,0.2418 0.15121,-0.039 0.30241,0.2628 0.45361,0.2265 0.15121,-0.036 0.30241,0.2431 0.45361,0.2094 0.1512,-0.034 0.3024,0.2249 0.45361,0.194 0.15181,-0.031 0.30361,0.206 0.45481,0.1777 0.15121,-0.028 0.30242,0.1871 0.45362,0.1615 0.1512,-0.025 0.3024,0.1682 0.45361,0.1453 0.1512,-0.023 0.3024,0.1492 0.4536,0.1291 0.15181,-0.021 0.30362,0.1303 0.45482,0.1128 0.1512,-0.017 0.30241,0.1122 0.45361,0.097 0.15121,-0.015 0.30241,0.092 0.45361,0.08 0.1512,-0.012 0.3024,0.074 0.45361,0.065 0.15181,-0.01 0.30361,0.055 0.45481,0.048 0.15121,-0.01 0.30241,0.037 0.45362,0.033 0.1512,-0.01 0.3024,0.017 0.45361,0.016 0.1512,0 0.3024,0 0.4536,0 0.15181,0 0.30362,-0.021 0.45482,-0.016 0.1512,0.01 0.3024,-0.039 0.4536,-0.033 0.15122,0.01 0.30242,-0.057 0.45362,-0.048 0.1512,0.01 0.30241,-0.077 0.45361,-0.065 0.15181,0.012 0.30361,-0.095 0.45481,-0.08 0.15121,0.015 0.30241,-0.1149 0.45361,-0.097 0.15121,0.017 0.30241,-0.133 0.45362,-0.1128 0.1512,0.02 0.3024,-0.1519 0.4536,-0.1291 0.1518,0.023 0.30362,-0.1708 0.45482,-0.1453 0.1512,0.025 0.3024,-0.1898 0.45361,-0.1615 0.1512,0.028 0.30241,-0.2087 0.45361,-0.1777 0.1512,0.031 0.30241,-0.2276 0.45361,-0.194 0.1518,0.034 0.30361,-0.2457 0.45481,-0.2094 0.15121,0.036 0.30241,-0.2655 0.45361,-0.2265 0.1512,0.039 0.3024,-0.2835 0.45362,-0.2418 0.1512,0.042 0.3024,-0.3033 0.4536,-0.2589 0.15121,0.045 0.30362,-0.3215 0.45482,-0.2744 0.1512,0.047 0.3024,-0.3403 0.45361,-0.2906 0.1512,0.05 0.3024,-0.3592 0.4536,-0.3067 0.15121,0.052 0.30242,-0.3783 0.45362,-0.3231 0.1518,0.055 0.30361,-0.3963 0.45481,-0.3384 0.15121,0.058 0.30241,-0.4161 0.45361,-0.3556 0.1512,0.061 0.30241,-0.4349 0.45361,-0.3716 0.15121,0.063 0.30241,-0.4532 0.45361,-0.3872 0.15181,0.066 0.30361,-0.4728 0.45482,-0.4042 0.1512,0.069 0.3024,-0.4909 0.45361,-0.4196 0.1512,0.071 0.3024,-0.5099 0.4536,-0.4359 0.15121,0.074 0.30242,-0.5287 0.45362,-0.4521 0.1518,0.077 0.3036,-0.54765 0.45481,-0.46825 0.15121,0.079 0.30241,-0.5666 0.45361,-0.4845 0.1512,0.082 0.30241,-0.5848 0.45361,-0.5 0.1512,0.085 0.3024,-0.6045 0.45361,-0.5171 0.15121,0.087 0.30361,-0.6233 0.45481,-0.5332 0.15121,0.09 0.30242,-0.6415 0.45362,-0.5487 0.1512,0.093 0.3024,-0.6604 0.4536,-0.5648 0.15121,0.095 0.30241,-0.6794 0.45361,-0.5812 0.15181,0.098 0.30361,-0.6991 0.45482,-0.5982 0.1512,0.101 0.30241,-0.7171 0.45361,-0.6136 0.1512,0.1037 0.30241,-0.7353 0.45361,-0.629 0.1512,0.1063 0.3024,-0.755 0.45361,-0.646 0.1512,0.109 0.30361,-0.774 0.45481,-0.6624 0.1512,0.1117 0.30241,-0.792 0.45362,-0.6777 0.1512,0.1144 0.3024,-0.8118 0.4536,-0.6947 0.15121,0.117 0.30241,-0.8299 0.45361,-0.7102 0.1512,0.1198 0.30361,-0.8489 0.45482,-0.7264 0.1512,0.1224 0.3024,-0.8686 0.45361,-0.7435 0.15121,0.1251 0.30241,-0.8867 0.45361,-0.7589 0.1512,0.1279 0.3024,-0.9056 0.45361,-0.7751 0.1512,0.1306 0.30361,-0.9237 0.45481,-0.7905 0.1512,0.1332 0.30241,-0.9435 0.45361,-0.8076 0.15121,0.1358 0.30241,-0.9624 0.45361,-0.8238 0.15121,0.1386 0.30241,-0.9805 0.45361,-0.8392 0.1512,0.1412 0.30362,-1.0003 0.45482,-0.8564 0.1512,0.1441 0.3024,-1.0183 0.4536,-0.8716 0.15121,0.1466 0.30242,-1.0373 0.45362,-0.888 0.1512,0.1493 0.3036,-1.0562 0.45482,-0.9041 0.1512,0.152 0.3024,-1.0752 0.4536,-0.9204 0.1512,0.1547 0.30241,-1.0941 0.45361,-0.9367 0.1512,0.1574 0.30241,-1.113 0.45362,-0.9528 0.1512,0.1601 0.303,-1.1311 0.4548,-0.9684 0.15121,0.1629 0.30242,-1.1508 0.45362,-0.9852 0.1512,0.1654 0.3024,-1.1691 0.4536,-1.0008 0.15121,0.1682 0.30241,-1.1887 0.45362,-1.0178 0.1512,0.1709 0.303,-1.2068 0.45481,-1.0332 0.15121,0.1735 0.30241,-1.2258 0.45361,-1.0495 0.15121,0.1762 0.30241,-1.2446 0.45361,-1.0657 0.1512,0.179 0.3024,-1.2635 0.45361,-1.0819 0.15121,0.1817 0.30301,-1.2825 0.45481,-1.0981 0.1512,0.1843 0.30242,-1.30067 0.45362,-1.1136 0.1512,0.187 0.3024,-1.32038 0.4536,-1.13062 0.15121,0.1897 0.30241,-1.33926 0.45361,-1.14685 0.15121,0.19241 0.30302,-1.3574 0.45482,-1.16228 0.1512,0.19512 0.3024,-1.37631 0.45361,-1.17849 0.15121,0.19784 0.30241,-1.39522 0.45361,-1.19474 0.1512,0.20048 0.3024,-1.41421 0.45361,-1.21095 0.1512,0.20319 0.30301,-1.43312 0.45481,-1.22722 0.1512,0.2059 0.30241,-1.45197 0.45361,-1.24342 0.15121,0.20855 0.30241,-1.47095 0.45362,-1.25969 0.1512,0.21127 0.3024,-1.48986 0.4536,-1.27589 0.1512,0.21392 0.30302,-1.50793 0.45482,-1.29131 0.1512,0.21662 0.3024,-1.52769 0.4536,-1.30836 0.15122,0.21934 0.30242,-1.54582 0.45362,-1.32378 0.1512,0.22198 0.30241,-1.56474 0.45361,-1.34004 0.1512,0.22475 0.30301,-1.58367 0.45481,-1.35626 0.15121,0.22741 0.30241,-1.60257 0.45361,-1.37246 0.1512,0.23007 0.30241,-1.62149 0.45362,-1.38872 0.1512,0.23277 0.3024,-1.64046 0.4536,-1.40493 0.1512,0.23548 0.30301,-1.65937 0.45482,-1.42119 0.1512,0.23813 0.3024,-1.67751 0.45361,-1.4366 0.1512,0.24083 0.3024,-1.69722 0.45361,-1.45367 0.1512,0.24356 0.30241,-1.71528 0.45361,-1.46908 0.1512,0.24626 0.303,-1.7342 0.45481,-1.48529 0.15121,0.24898 0.30241,-1.75401 0.45361,-1.50233 0.1512,0.25163 0.3024,-1.77215 0.45361,-1.51775 0.15121,0.25427 0.30241,-1.79107 0.45361,-1.53402 0.15121,0.25698 0.30301,-1.80908 0.45482,-1.54945 0.1512,0.2597 0.3024,-1.82883 0.45361,-1.56649 0.1512,0.26241 0.3024,-1.84775 0.4536,-1.58263 0.15121,0.26506 0.30242,-1.86594 0.45362,-1.59812 0.1512,0.26771 0.303,-1.88564 0.45481,-1.61522 0.15121,0.27047 0.30241,-1.90372 0.45361,-1.63053 0.1512,0.27313 0.30241,-1.92269 0.45361,-1.64685 0.1512,0.27584 0.30241,-1.94161 0.45361,-1.66306 0.15121,0.27855 0.30301,-1.96052 0.45482,-1.67926 0.1512,0.2812 0.3024,-1.97943 0.45361,-1.69552 0.1512,0.28392 0.3024,-1.99842 0.4536,-1.71173 0.1512,0.28656 0.30241,-2.01733 0.45362,-1.72799 0.1512,0.28927 0.303,-2.03541 0.45481,-1.74342 0.15121,0.29198 0.30241,-2.05516 0.45361,-1.76047 0.1512,0.2947 0.30241,-2.07323 0.45361,-1.77588 0.1512,0.29741 0.3024,-2.09215 0.45361,-1.79209 0.15121,0.30006 0.30301,-2.11191 0.45481,-1.80914 0.15121,0.30276 0.30241,-2.12998 0.45362,-1.82456 0.1512,0.30542 0.3024,-2.14896 0.4536,-1.84083 0.15121,0.30819 0.30241,-2.16702 0.45361,-1.85618 0.15121,0.31078 0.30301,-2.18679 0.45482,-1.8733 0.1512,0.31356 0.30241,-2.2057 0.45361,-1.88949 0.1512,0.31619 0.30241,-2.22384 0.45361,-1.90493 0.1512,0.31892 0.3024,-2.24353 0.45361,-1.92196 0.1512,0.32162 0.30301,-2.26161 0.45421,-1.9374 0.1518,0.32428 0.30241,-2.28057 0.45422,-1.95359 0.1512,0.32699 0.3024,-2.29949 0.4536,-1.96986 0.15121,0.3297 0.30241,-2.31847 0.45361,-1.98606 0.1512,0.33234 0.30301,-2.33739 0.45422,-2.00233 0.1518,0.33505 0.303,-2.35625 0.4542,-2.01853 0.15122,0.3377 0.30242,-2.37528 0.45362,-2.03481 0.1512,0.34042 0.3024,-2.39334 0.45361,-2.05022 0.1512,0.34313 0.30301,-2.41304 0.45421,-2.06721 0.1518,0.34578 0.30241,-2.43118 0.45421,-2.08268 0.15121,0.34848 0.30241,-2.45016 0.45362,-2.0989 0.1512,0.35114 0.3024,-2.46907 0.45361,-2.11516 0.1512,0.35385 0.30301,-2.48871 0.45481,-2.13221 0.1512,0.35663 0.30181,-2.50606 0.45361,-2.14678 0.1512,0.35927 0.30241,-2.52576 0.45361,-2.16377 0.15121,0.36192 0.30241,-2.54474 0.45361,-2.1801 0.1512,0.36463 0.303,-2.56366 0.45422,-2.1963 0.1518,0.36734 0.3024,-2.58173 0.4542,-2.21173 0.15121,0.37005 0.30241,-2.6007 0.45362,-2.22793 0.1512,0.3727 0.3024,-2.6204 0.45361,-2.24498 0.1512,0.37541 0.303,-2.63859 0.45421,-2.26046 0.1518,0.37813 0.30241,-2.65744 0.45421,-2.27667 0.1512,0.38079 0.3024,-2.67635 0.45361,-2.29286 0.15121,0.38349 0.30241,-2.69528 0.45361,-2.30914 0.1512,0.3862 0.30301,-2.71425 0.45421,-2.32533 0.15181,0.38885 0.30241,-2.73233 0.45421,-2.34076 0.15121,0.39156 0.30241,-2.75209 0.45361,-2.35781 0.1512,0.39421 0.30241,-2.77021 0.45362,-2.37323 0.1512,0.39692 0.303,-2.78991 0.4542,-2.39027 0.0976,0.25626 0.19398,-0.96849 0.29097,-1.77589 -12.55771,3.09315 -37.82372,5.20585 -66.94753,5.20585 -30.38102,0 -56.56449,-2.29889 -68.502323,-5.61169 z"
       id="path44410-3" />
    <path
       inkscape:connector-curvature="0"
       id="circle5115-3-6-2-9-6-9-71"
       d="m 140.21004,1003.158 a 11.362204,11.362204 0 0 1 -16.04623,0.8459 11.362204,11.362204 0 0 1 -0.84577,-16.04625 11.362204,11.362204 0 0 1 16.04622,-0.8459 11.362204,11.362204 0 0 1 0.84578,16.04625 z"
       inkscape:transform-center-y="-12.977364"
       inkscape:transform-center-x="-44.809678"
       style="display:inline;fill:url(#radialGradient45692-03);fill-opacity:1;stroke:#4da06f;stroke-width:0.06483003;stroke-miterlimit:4;stroke-dasharray:none;stroke-opacity:0.38359788" />
    <path
       style="fill:none;stroke:#000000;stroke-width:0.8756637;stroke-linecap:butt;stroke-linejoin:miter;stroke-miterlimit:4;stroke-dasharray:5.25398267, 0.87566378;stroke-dashoffset:0;stroke-opacity:1"
       d="m 105.56701,983.80055 50.89587,0.078 0.0777,0 -0.0241,-0.078"
       id="path75565"
       inkscape:connector-curvature="0"
       sodipodi:nodetypes="cccc" />
    <path
       style="fill:none;stroke:#000000;stroke-width:0.8756637;stroke-linecap:butt;stroke-linejoin:miter;stroke-miterlimit:4;stroke-dasharray:5.25398267, 0.87566378;stroke-dashoffset:0;stroke-opacity:1"
       d="m 94.835792,957.82612 59.762048,0 0.14759,0 10.76134,0"
       id="path75565-7"
       inkscape:connector-curvature="0"
       sodipodi:nodetypes="cccc" />
    <path
       style="fill:none;stroke:#000000;stroke-width:0.8756637;stroke-linecap:butt;stroke-linejoin:miter;stroke-miterlimit:4;stroke-dasharray:5.25398267, 0.87566378;stroke-dashoffset:0;stroke-opacity:1"
       d="m 87.848513,931.84994 69.390267,0 0.14698,0 17.1396,0"
       id="path75565-8"
       inkscape:connector-curvature="0"
       sodipodi:nodetypes="cccc" />
    <path
       style="fill:none;stroke:#000000;stroke-width:0.8756637;stroke-linecap:butt;stroke-linejoin:miter;stroke-miterlimit:4;stroke-dasharray:5.25398267, 0.87566378;stroke-dashoffset:0;stroke-opacity:1"
       d="m 80.967859,905.88857 74.587201,0 0.14458,0 24.18228,0"
       id="path75565-8-4"
       inkscape:connector-curvature="0"
       sodipodi:nodetypes="cccc" />
    <path
       style="fill:none;stroke:#000000;stroke-width:0.8756637;stroke-linecap:butt;stroke-linejoin:miter;stroke-miterlimit:4;stroke-dasharray:5.25398267, 0.87566378;stroke-dashoffset:0;stroke-opacity:1"
       d="m 74.298047,879.77908 79.913653,0 0.14819,0 33.30569,0"
       id="path75565-8-4-1"
       inkscape:connector-curvature="0"
       sodipodi:nodetypes="cccc" />
    <path
       style="fill:none;stroke:#000000;stroke-width:0.8756637;stroke-linecap:butt;stroke-linejoin:miter;stroke-miterlimit:4;stroke-dasharray:5.25398267, 0.87566378;stroke-dashoffset:0;stroke-opacity:1"
       d="m 68.397503,853.93241 86.090697,0 0.1494,0 38.88275,0"
       id="path75565-8-4-9"
       inkscape:connector-curvature="0"
       sodipodi:nodetypes="cccc" />
    <path
       style="display:inline;fill:none;stroke:#ff0000;stroke-width:0.46661738;stroke-linecap:butt;stroke-linejoin:miter;stroke-miterlimit:4;stroke-dasharray:none;stroke-opacity:1;marker-end:url(#marker148016-1-4-2)"
       d="m 637.70325,817.64241 -31.15933,-0.17295"
       id="path148080-3-1-7-3-6"
       inkscape:connector-curvature="0" />
    <path
       style="fill:none;stroke:#000000;stroke-width:2.15852022;stroke-linecap:butt;stroke-linejoin:miter;stroke-miterlimit:4;stroke-dasharray:none;stroke-opacity:1;marker-end:url(#Arrow2Lend)"
       d="m 599.21267,759.07192 0,133.20342 -121.12469,0 -1.15361,0"
       id="path8504-6"
       inkscape:connector-curvature="0" />
    <path
       inkscape:connector-curvature="0"
       style="color:#000000;display:inline;overflow:visible;visibility:visible;fill:url(#linearGradient75909);fill-opacity:1;stroke:#000000;stroke-width:2.59724998;stroke-linecap:butt;stroke-linejoin:miter;stroke-miterlimit:4;stroke-dasharray:none;stroke-dashoffset:0;stroke-opacity:1;marker:none;enable-background:accumulate"
       d="m 289.95914,1019.4126 c 0.11566,-0.6868 0.23192,-2.4871 0.34758,-2.1816 0.15121,0.3996 0.30181,-2.7873 0.45362,-2.3903 0.1512,0.3969 0.30241,-2.7675 0.45361,-2.3732 0.1512,0.3942 0.303,-2.7495 0.45421,-2.3579 0.15181,0.3916 0.30241,-2.7296 0.45361,-2.3407 0.1518,0.3888 0.3024,-2.7116 0.45421,-2.3254 0.15121,0.3862 0.30241,-2.6926 0.45361,-2.3091 0.15121,0.3835 0.30301,-2.6737 0.45421,-2.2929 0.15121,0.3808 0.30241,-2.65465 0.45422,-2.27665 0.1512,0.3782 0.3024,-2.6358 0.4536,-2.2604 0.15121,0.3754 0.30242,-2.6177 0.45362,-2.2449 0.1512,0.3727 0.303,-2.598 0.4542,-2.228 0.15121,0.37 0.30242,-2.5791 0.45362,-2.2118 0.1518,0.3674 0.30241,-2.5609 0.45421,-2.1962 0.1512,0.3646 0.30241,-2.5421 0.45361,-2.1801 0.15121,0.3619 0.30301,-2.5231 0.45421,-2.1638 0.1512,0.3593 0.30241,-2.5034 0.45362,-2.1468 0.1518,0.3565 0.3024,-2.4861 0.4542,-2.1322 0.1512,0.3539 0.30241,-2.4663 0.45362,-2.1151 0.1512,0.3512 0.303,-2.4474 0.45421,-2.0989 0.1512,0.3485 0.3024,-2.4286 0.45361,-2.0827 0.1518,0.3458 0.30241,-2.4104 0.45421,-2.0673 0.1512,0.3431 0.3024,-2.3906 0.45361,-2.0501 0.15121,0.3404 0.30301,-2.37261 0.45421,-2.03485 0.1512,0.33771 0.3024,-2.35359 0.45361,-2.01859 0.15181,0.33512 0.30241,-2.33462 0.45421,-2.00227 0.15121,0.33235 0.30241,-2.31575 0.45361,-1.98606 0.15121,0.32963 0.30301,-2.29691 0.45422,-1.96986 0.1512,0.32692 0.3024,-2.27793 0.4536,-1.95366 0.15181,0.32428 0.30242,-2.25895 0.45422,-1.93739 0.1512,0.32162 0.3024,-2.24088 0.4536,-1.92197 0.15121,0.31891 0.30302,-2.22112 0.45422,-1.90492 0.1512,0.31627 0.30241,-2.20299 0.45361,-1.88949 0.15181,0.31354 0.30241,-2.18408 0.45421,-1.87324 0.15121,0.31084 0.30241,-2.16438 0.45361,-1.85624 0.1512,0.30812 0.30301,-2.14625 0.45422,-1.84078 0.1512,0.30543 0.3024,-2.12732 0.4536,-1.82461 0.15181,0.30277 0.30241,-2.1092 0.45422,-1.80914 0.1512,0.30011 0.3024,-2.08943 0.45361,-1.79209 0.1512,0.2974 0.30301,-2.07052 0.45421,-1.77589 0.1512,0.2947 0.30241,-2.05239 0.45361,-1.7604 0.15181,0.29199 0.3024,-2.03275 0.45421,-1.74342 0.15121,0.28928 0.30241,-2.01456 0.45361,-1.728 0.1512,0.28663 0.30301,-1.9957 0.45422,-1.71172 0.1512,0.28391 0.3024,-1.97679 0.4536,-1.69552 0.15181,0.2812 0.30241,-1.95782 0.45422,-1.67927 0.1512,0.2785 0.3024,-1.9389 0.45361,-1.66305 0.1512,0.27584 0.30301,-1.91998 0.45421,-1.64686 0.1512,0.27314 0.30241,-1.90106 0.45361,-1.63058 0.1518,0.27048 0.3024,-1.88293 0.45421,-1.61516 0.15121,0.26776 0.30241,-1.86318 0.45361,-1.59812 0.1512,0.26506 0.30301,-1.8451 0.45422,-1.58269 0.1512,0.2624 0.3024,-1.82619 0.4536,-1.5665 0.15181,0.2597 0.30241,-1.80637 0.45421,-1.54938 0.15121,0.25699 0.30241,-1.78836 0.45362,-1.53402 0.1512,0.25433 0.303,-1.76938 0.4542,-1.51775 0.15121,0.25162 0.30242,-1.75132 0.45362,-1.50234 0.1518,0.24891 0.3024,-1.73155 0.45421,-1.48528 0.15121,0.2462 0.30241,-1.71264 0.45361,-1.46915 0.1512,0.24355 0.30301,-1.69444 0.45421,-1.4536 0.1512,0.24085 0.30241,-1.6748 0.45361,-1.43661 0.15181,0.23819 0.30241,-1.65667 0.45421,-1.42119 0.1512,0.23548 0.30242,-1.63776 0.45362,-1.40493 0.1512,0.23271 0.303,-1.61884 0.4542,-1.38871 0.15121,0.23005 0.30241,-1.59993 0.45362,-1.37253 0.1518,0.22741 0.3024,-1.58094 0.45421,-1.35625 0.1512,0.22477 0.3024,-1.56202 0.45361,-1.33998 0.1512,0.22198 0.30301,-1.54312 0.45421,-1.32378 0.1512,0.21927 0.3024,-1.52505 0.45362,-1.30836 0.1518,0.21656 0.3024,-1.50529 0.4542,-1.29138 0.1512,0.21397 0.30241,-1.48715 0.45361,-1.27588 0.15121,0.21125 0.30301,-1.46819 0.45421,-1.25964 0.15121,0.20856 0.30241,-1.44931 0.45361,-1.24342 0.15181,0.20584 0.30241,-1.4304 0.45422,-1.22721 0.1512,0.20319 0.3024,-1.4115 0.4536,-1.21101 0.15122,0.20054 0.30302,-1.39252 0.45422,-1.19469 0.1512,0.19777 0.3024,-1.3736 0.45361,-1.17854 0.15181,0.19511 0.30241,-1.35469 0.45421,-1.16228 0.1512,0.19241 0.30241,-1.33655 0.45361,-1.14679 0.1512,0.18969 0.30301,-1.31771 0.45421,-1.13066 0.15121,0.18705 0.30241,-1.29787 0.45361,-1.11354 0.15181,0.18434 0.30241,-1.2798 0.45422,-1.09818 0.1512,0.18169 0.3024,-1.26089 0.4536,-1.08192 0.15121,0.17898 0.30302,-1.24191 0.45422,-1.06566 0.1512,0.17627 0.3024,-1.22299 0.45361,-1.0495 0.15181,0.17361 0.3024,-1.20408 0.45421,-1.03318 0.1512,0.1709 0.30181,-1.18602 0.45361,-1.01776 0.1512,0.16819 0.30301,-1.16632 0.45422,-1.00077 0.1512,0.16548 0.3024,-1.14819 0.4536,-0.98536 0.15181,0.16284 0.30241,-1.12836 0.45361,-0.96824 0.15181,0.16012 0.30241,-1.11035 0.45421,-0.95288 0.15121,0.1574 0.30302,-1.09137 0.45422,-0.93662 0.1512,0.1547 0.3024,-1.07252 0.45361,-0.92041 0.1512,0.15199 0.3024,-1.05354 0.45421,-0.90421 0.15121,0.1494 0.30241,-1.03457 0.45361,-0.88794 0.1512,0.14669 0.30301,-1.01565 0.45422,-0.87168 0.1512,0.14398 0.3024,-0.99758 0.4536,-0.85626 0.1518,0.14127 0.30241,-0.97788 0.45422,-0.83927 0.1512,0.13862 0.303,-0.95968 0.4542,-0.82378 0.15121,0.1359 0.30241,-0.94084 0.45362,-0.80759 0.1512,0.13319 0.30241,-0.92107 0.45361,-0.79059 0.1512,0.13055 0.3024,-0.90288 0.4536,-0.77505 0.15182,0.12783 0.30362,-0.88403 0.45482,-0.75891 0.1512,0.12512 0.3024,-0.8659 0.45361,-0.74349 0.15121,0.12247 0.30241,-0.84613 0.45361,-0.72638 0.15121,0.11976 0.30241,-0.82727 0.45361,-0.71023 0.15181,0.11705 0.30361,-0.80915 0.45482,-0.69475 0.1512,0.11434 0.3024,-0.78939 0.4536,-0.6777 0.1512,0.11168 0.30242,-0.77132 0.45362,-0.66228 0.1512,0.10897 0.3024,-0.75241 0.4536,-0.64608 0.15181,0.10632 0.30362,-0.73265 0.45482,-0.62903 0.1512,0.10361 0.30241,-0.71451 0.45361,-0.61361 0.1512,0.1009 0.30241,-0.69638 0.45361,-0.59819 0.15121,0.0983 0.30241,-0.67662 0.45361,-0.58108 0.1518,0.0955 0.30361,-0.65776 0.45482,-0.56493 0.1512,0.0928 0.3024,-0.63879 0.4536,-0.54867 0.1512,0.0902 0.30241,-0.62072 0.45362,-0.53325 0.1512,0.0875 0.3024,-0.6018 0.45361,-0.51704 0.1518,0.0848 0.30361,-0.58204 0.45481,-0.49993 0.1512,0.082 0.30241,-0.56398 0.45361,-0.48458 0.1512,0.0794 0.3024,-0.54499 0.4536,-0.46831 0.15122,0.0767 0.30242,-0.52608 0.45362,-0.45204 0.1518,0.074 0.30361,-0.50723 0.45482,-0.4359 0.1512,0.0713 0.3024,-0.48825 0.4536,-0.41964 0.15121,0.0686 0.30241,-0.47011 0.45361,-0.40415 0.1512,0.0659 0.30241,-0.45042 0.45362,-0.38716 0.1518,0.0632 0.3036,-0.43229 0.45481,-0.37175 0.1512,0.0605 0.30241,-0.41336 0.45361,-0.35548 0.1512,0.0578 0.3024,-0.3936 0.4536,-0.33849 0.15121,0.0554 0.30241,-0.37547 0.45362,-0.323 0.1518,0.0524 0.30361,-0.35657 0.45481,-0.30681 0.15121,0.05 0.30241,-0.33765 0.45361,-0.2906 0.15121,0.047 0.30241,-0.31873 0.45361,-0.27427 0.1512,0.0446 0.3024,-0.30066 0.45362,-0.25892 0.1518,0.0415 0.3036,-0.28089 0.4548,-0.24186 0.15121,0.0391 0.30242,-0.26283 0.45362,-0.2265 0.1512,0.0361 0.3024,-0.24302 0.45361,-0.20934 0.1512,0.0337 0.3024,-0.22499 0.4536,-0.19403 0.15181,0.0307 0.30362,-0.20596 0.45482,-0.17771 0.1512,0.0283 0.30241,-0.18711 0.45361,-0.16157 0.15121,0.0253 0.30241,-0.16813 0.45361,-0.1453 0.1512,0.0229 0.30241,-0.14921 0.45361,-0.12903 0.15181,0.0205 0.30361,-0.1303 0.45481,-0.11277 0.15121,0.0174 0.30241,-0.11223 0.45362,-0.0974 0.1512,0.0151 0.3024,-0.0925 0.45361,-0.0804 0.1512,0.0121 0.3024,-0.0744 0.4536,-0.065 0.15181,0.01 0.30362,-0.0548 0.45482,-0.0476 0.1512,0.006 0.3024,-0.0367 0.45361,-0.0325 0.15121,0.006 0.30241,-0.0174 0.45361,-0.0162 0.1512,0 0.30241,0 0.45361,0 0.15181,0 0.30361,0.0205 0.45481,0.0162 0.15121,-0.006 0.30241,0.0391 0.45361,0.0325 0.15121,-0.006 0.30241,0.0572 0.45362,0.0476 0.1512,-0.01 0.3024,0.077 0.4536,0.065 0.15181,-0.0121 0.30362,0.0951 0.45482,0.0804 0.1512,-0.015 0.3024,0.11488 0.45361,0.0974 0.1512,-0.0175 0.30241,0.13295 0.45361,0.11277 0.1512,-0.0198 0.30241,0.15192 0.45361,0.12903 0.1518,-0.0229 0.30361,0.17091 0.45481,0.1453 0.15121,-0.0253 0.30241,0.18982 0.45361,0.16157 0.1512,-0.0283 0.30241,0.20867 0.45362,0.17771 0.1512,-0.0307 0.3024,0.22765 0.4536,0.19403 0.15181,-0.0337 0.30362,0.24572 0.45482,0.20934 0.1512,-0.0362 0.3024,0.26553 0.45361,0.2265 0.1512,-0.0391 0.3024,0.28355 0.45361,0.24186 0.1512,-0.0415 0.30241,0.30326 0.45361,0.25892 0.1518,-0.0446 0.30361,0.32144 0.45482,0.27427 0.1512,-0.047 0.3024,0.34042 0.4536,0.2906 0.1512,-0.05 0.30241,0.35934 0.45361,0.30681 0.15121,-0.0524 0.30241,0.37819 0.45361,0.323 0.15181,-0.0548 0.30362,0.39632 0.45482,0.33849 0.1512,-0.0578 0.3024,0.41602 0.45361,0.35548 0.1512,-0.0605 0.3024,0.435 0.4536,0.37175 0.15121,-0.0632 0.30242,0.45306 0.45362,0.38716 0.1518,-0.0659 0.3036,0.47276 0.45482,0.40415 0.1512,-0.0686 0.3024,0.49097 0.4536,0.41964 0.1512,-0.0713 0.30241,0.50988 0.45361,0.4359 0.1512,-0.0741 0.3024,0.52873 0.45362,0.45204 0.1512,-0.0767 0.3036,0.5477 0.4548,0.46831 0.15121,-0.0793 0.30242,0.56662 0.45362,0.48458 0.1512,-0.0821 0.3024,0.58475 0.4536,0.49993 0.15121,-0.0847 0.30241,0.60451 0.45362,0.51704 0.1518,-0.0874 0.3036,0.62343 0.45481,0.53325 0.1512,-0.0901 0.30241,0.6415 0.45361,0.54867 0.1512,-0.0928 0.30241,0.66042 0.45361,0.56493 0.1512,-0.0955 0.3024,0.67933 0.45361,0.58108 0.15121,-0.0982 0.30361,0.69909 0.45481,0.59819 0.1512,-0.1009 0.30241,0.71722 0.45362,0.61361 0.1512,-0.10362 0.3024,0.73535 0.4536,0.62903 0.15121,-0.10633 0.30241,0.75505 0.45361,0.64608 0.1512,-0.10904 0.30361,0.77396 0.45482,0.66228 0.1512,-0.11169 0.3024,0.79204 0.45361,0.6777 0.15121,-0.1144 0.30241,0.81186 0.45361,0.69475 0.1512,-0.11699 0.3024,0.82999 0.45361,0.71023 0.1512,-0.11975 0.30361,0.84885 0.45481,0.72638 0.1512,-0.12241 0.30241,0.86861 0.45361,0.74349 0.15121,-0.12512 0.30241,0.88674 0.45362,0.75891 0.1512,-0.12783 0.3024,0.9056 0.4536,0.77505 0.1512,-0.13048 0.30362,0.92378 0.45482,0.79059 0.1512,-0.13325 0.3024,0.94349 0.4536,0.80759 0.15121,-0.1359 0.30242,0.9624 0.45362,0.82378 0.1512,-0.13861 0.3024,0.98054 0.45361,0.83927 0.1512,-0.14132 0.30361,1.00024 0.45481,0.85626 0.15121,-0.14397 0.30241,1.01837 0.45361,0.87168 0.1512,-0.14663 0.30241,1.03734 0.45362,0.88794 0.1512,-0.14933 0.303,1.0562 0.45481,0.90421 0.1512,-0.15211 0.30241,1.07511 0.45361,0.92041 0.1512,-0.15475 0.3024,1.09402 0.4536,0.93662 0.15121,-0.15747 0.30241,1.113 0.45362,0.95288 0.1512,-0.16012 0.30301,1.13108 0.45481,0.96824 0.15121,-0.16283 0.30241,1.15084 0.45361,0.98536 0.15121,-0.16555 0.30241,1.16896 0.45361,1.00077 0.1512,-0.16826 0.3024,1.18866 0.45361,1.01776 0.15121,-0.1709 0.30301,1.20679 0.45481,1.03318 0.1512,-0.17349 0.30242,1.22577 0.45362,1.0495 0.1512,-0.17625 0.3024,1.24464 0.45361,1.06566 0.1512,-0.17897 0.3024,1.26361 0.4536,1.08192 0.15121,-0.18162 0.30302,1.28252 0.45482,1.09818 0.1512,-0.18433 0.30241,1.30059 0.45361,1.11354 0.15121,-0.18705 0.30241,1.32035 0.45361,1.13066 0.1512,-0.18976 0.3024,1.3392 0.45361,1.14679 0.1512,-0.19241 0.30301,1.35739 0.45481,1.16228 0.15121,-0.19506 0.30241,1.37631 0.45362,1.17854 0.1512,-0.19783 0.3024,1.39523 0.45361,1.19469 0.1512,-0.20049 0.3024,1.4142 0.4536,1.21101 0.1512,-0.20319 0.30302,1.43305 0.45482,1.22721 0.1512,-0.20589 0.3024,1.45198 0.4536,1.24342 0.15122,-0.20855 0.30242,1.47089 0.45362,1.25964 0.1512,-0.21127 0.30241,1.48985 0.45361,1.27588 0.1512,-0.21391 0.30301,1.50794 0.45481,1.29138 0.15121,-0.21669 0.30241,1.52763 0.45361,1.30836 0.1512,-0.21934 0.30241,1.54576 0.45362,1.32378 0.1512,-0.22204 0.3024,1.56475 0.4536,1.33998 0.15121,-0.22469 0.30302,1.58366 0.45482,1.35625 0.1512,-0.2274 0.3024,1.60258 0.45361,1.37253 0.1512,-0.23013 0.3024,1.62142 0.45361,1.38871 0.1512,-0.23283 0.30241,1.64041 0.45361,1.40493 0.1512,-0.23548 0.303,1.65938 0.45481,1.42119 0.15121,-0.23819 0.30241,1.67751 0.45361,1.43661 0.1512,-0.24084 0.3024,1.69715 0.45362,1.4536 0.1512,-0.24349 0.3024,1.71535 0.4536,1.46915 0.15121,-0.24627 0.30301,1.73419 0.45482,1.48528 0.1512,-0.24898 0.3024,1.75396 0.45361,1.50234 0.1512,-0.25163 0.3024,1.77208 0.4536,1.51775 0.15121,-0.25434 0.30242,1.79101 0.45362,1.53402 0.1512,-0.25699 0.303,1.80908 0.45481,1.54938 0.15121,-0.25969 0.30241,1.8289 0.45361,1.5665 0.1512,-0.26241 0.30241,1.84775 0.45361,1.58269 0.1512,-0.26506 0.30241,1.86588 0.45361,1.59812 0.15121,-0.26777 0.30301,1.88564 0.45482,1.61516 0.1512,-0.27048 0.3024,1.90372 0.45361,1.63058 0.1512,-0.27312 0.3024,1.9227 0.4536,1.64686 0.15121,-0.27585 0.30241,1.94155 0.45362,1.66305 0.1512,-0.27855 0.303,1.96047 0.45481,1.67927 0.15121,-0.28127 0.30241,1.97943 0.45361,1.69552 0.1512,-0.28398 0.30241,1.99835 0.45361,1.71172 0.1512,-0.28662 0.3024,2.01728 0.45361,1.728 0.15121,-0.28933 0.30301,2.03541 0.45481,1.74342 0.15121,-0.29199 0.30242,2.0551 0.45362,1.7604 0.1512,-0.29463 0.3024,2.07329 0.4536,1.77589 0.15121,-0.29734 0.30241,2.0922 0.45361,1.79209 0.15121,-0.30006 0.30301,2.11191 0.45482,1.80914 0.1512,-0.30271 0.30241,2.13004 0.45361,1.82461 0.1512,-0.30547 0.30241,2.1489 0.45361,1.84078 0.1512,-0.30814 0.3024,2.16708 0.45361,1.85624 0.1512,-0.31084 0.30301,2.18678 0.45481,1.87324 0.1512,-0.3135 0.30241,2.20576 0.45362,1.88949 0.1512,-0.3162 0.3024,2.22383 0.4536,1.90492 0.15121,-0.31891 0.30241,2.24359 0.45361,1.92197 0.1512,-0.32156 0.30301,2.26167 0.45482,1.93739 0.1512,-0.32427 0.3024,2.28058 0.45361,1.95366 0.15121,-0.32705 0.30241,2.29949 0.45361,1.96986 0.1512,-0.32969 0.3024,2.31841 0.45361,1.98606 0.1512,-0.33235 0.30301,2.33732 0.45481,2.00227 0.1512,-0.335 0.30181,2.3563 0.45361,2.01859 0.15121,-0.33776 0.30241,2.37525 0.45361,2.03485 0.15121,-0.3405 0.30241,2.3932 0.45361,2.0501 0.1512,-0.3431 0.30302,2.4131 0.45422,2.0673 0.1518,-0.3459 0.303,2.4312 0.4542,2.0827 0.15121,-0.3485 0.30242,2.4501 0.45362,2.0989 0.1512,-0.3512 0.3024,2.469 0.45361,2.1151 0.1512,-0.3539 0.30301,2.4887 0.45481,2.1322 0.1512,-0.3566 0.30241,2.5061 0.45361,2.1468 0.1512,-0.3593 0.30241,2.5257 0.45362,2.1638 0.1512,-0.362 0.3024,2.5447 0.4536,2.1801 0.1512,-0.3647 0.30301,2.5636 0.45422,2.1962 0.1518,-0.3673 0.3024,2.5818 0.4542,2.2118 0.15121,-0.37 0.30241,2.6007 0.45362,2.228 0.1512,-0.3728 0.30241,2.6203 0.45361,2.2449 0.1512,-0.3754 0.303,2.6386 0.4542,2.2604 0.15182,-0.378 0.30242,2.65745 0.45422,2.27665 0.1512,-0.3808 0.3024,2.6764 0.45361,2.2929 0.15121,-0.3835 0.30241,2.6953 0.45361,2.3091 0.1512,-0.3862 0.30301,2.7142 0.45421,2.3254 0.15181,-0.3889 0.30241,2.7323 0.45422,2.3407 0.1512,-0.3916 0.3024,2.7521 0.4536,2.3579 0.1512,-0.3943 0.30242,2.7701 0.45362,2.3732 0.1512,-0.397 0.303,2.7899 0.4542,2.3903 0.0976,-0.2564 0.19398,0.9684 0.29097,1.7759 -12.5577,-3.0933 -37.82372,-5.2059 -66.94753,-5.2059 -30.38101,0 -56.56448,2.2988 -68.50232,5.6116 z"
       id="path44410-3-4" />
    <flowRoot
       xml:space="preserve"
       id="flowRoot9952-4-7"
       style="font-style:normal;font-weight:normal;font-size:47.64986801px;line-height:125%;font-family:Sans;letter-spacing:0px;word-spacing:0px;fill:#000000;fill-opacity:1;stroke:none"
       transform="matrix(0.60240361,0,0,0.60240361,7326.4968,-2227.5862)"><flowRegion
         id="flowRegion9954-7-9"><rect
           id="rect9956-0-1"
           width="314.48914"
           height="98.022583"
           x="-11722.389"
           y="5247.2603" /></flowRegion><flowPara
         id="flowPara9958-7-0">?</flowPara></flowRoot>    <flowRoot
       xml:space="preserve"
       id="flowRoot9952-4-7-4"
       style="font-style:normal;font-weight:normal;font-size:47.64986801px;line-height:125%;font-family:Sans;letter-spacing:0px;word-spacing:0px;fill:#000000;fill-opacity:1;stroke:none"
       transform="matrix(0.60240361,0,0,0.60240361,7326.4968,-2227.5862)"><flowRegion
         id="flowRegion9954-7-9-5"><rect
           id="rect9956-0-1-6"
           width="314.48914"
           height="98.022583"
           x="-11438.907"
           y="5246.1719" /></flowRegion><flowPara
         id="flowPara9958-7-0-5">?</flowPara></flowRoot>    <path
       style="fill:none;stroke:#000000;stroke-width:0.8756637;stroke-linecap:butt;stroke-linejoin:miter;stroke-miterlimit:4;stroke-dasharray:5.25398267, 0.87566378;stroke-dashoffset:0;stroke-opacity:1"
       d="m 333.71051,862.59792 47.53627,-0.0726 0.0729,0 -0.0241,0.0726"
       id="path75565-71"
       inkscape:connector-curvature="0"
       sodipodi:nodetypes="cccc" />
    <g
       id="g75855"
       transform="matrix(0.0259725,0,0,0.0259725,-210.60332,-678.70819)">
      <path
         transform="matrix(0.68744444,0,0,0.65780548,8936.568,24383.956)"
         clip-path="url(#clipPath75827)"
         id="path11974-3"
         title="ceil(x/10)*sin(100*x)*atan(x/0.2)"
         d="m 13623.459,50807.122 c 15.175,0 30.343,0 45.511,0 15.175,0 30.344,0 45.512,0 15.177,0 30.345,0 45.513,0 15.176,0 30.344,0 45.512,0 15.169,0 30.345,0 45.514,0 15.168,0 30.343,0 45.511,0 15.169,0 30.345,0 45.514,0 15.168,0 30.343,0 45.511,0 15.169,0 30.337,0 45.514,0 15.168,0 30.336,0 45.512,0 15.168,0 30.336,0 45.513,0 15.168,0 30.337,0 45.505,0 15.175,0 30.343,0 45.512,0 15.176,0 30.345,0 45.513,0 15.175,0 30.343,0 45.512,0 15.175,0 30.343,0 45.511,0 15.169,0 30.346,0 45.514,0 15.168,0 30.343,0 45.512,0 15.168,0 30.345,0 45.513,0 15.168,0 30.337,0 45.512,0 15.168,0 30.336,0 45.513,0 15.168,0 30.337,0 45.512,0 15.168,0 30.336,0 45.513,0 15.167,0 30.335,0 45.503,0 15.176,0 30.344,0 45.512,0 15.177,0 30.345,0 45.514,0 15.175,0 30.343,0 45.511,0 15.177,0 30.345,0 45.514,0 15.168,0 30.343,0 45.511,0 15.169,0 30.344,0 45.512,0 15.168,0 30.345,0 45.514,0 15.168,0 30.336,0 45.511,0 15.169,0 30.337,0 45.514,0 15.168,0 30.336,0 45.511,0 15.169,0 30.337,0 45.514,0 15.168,0 30.336,0 45.505,0 15.175,0 30.343,0 45.511,0 15.177,0 30.346,0 45.514,0 15.175,0 30.343,0 45.512,0 15.168,0 30.345,0 45.513,0 15.168,0 30.343,0 45.512,0 15.168,0 30.345,0 45.513,0 15.168,0 30.344,0 45.512,0 15.168,0 30.336,0 45.512,0 15.168,0 30.336,0 45.513,0 15.168,0 30.337,0 45.512,0 15.168,0 30.336,0 45.513,0 15.168,0 30.337,0 45.505,0 15.175,0 30.343,0 45.512,0 15.177,0 30.345,0 45.513,0 15.175,0 30.344,0 45.512,0 15.168,0 30.345,0 45.513,0 15.169,0 30.344,0 45.512,0 15.168,0 30.345,0 45.513,0 15.169,0 30.344,0 45.512,0 15.168,0 30.337,0 45.514,0 15.168,0 30.336,0 45.511,0 15.169,0 30.337,0 45.512,0 15.168,0 30.337,0 45.513,0 15.169,0 30.337,0 45.505,0 15.175,0 30.344,0 45.512,0 15.177,0 30.345,0 45.513,0 15.176,0 30.344,0 45.512,0 15.168,0 30.345,0 45.514,0 15.168,0 30.343,0 45.511,0 15.169,0 30.345,0 45.514,0 15.168,0 30.343,0 45.511,0 15.169,0 30.337,0 45.514,0 15.168,0 30.336,0 45.512,0 15.168,0 30.336,0 45.513,0 15.168,0 30.337,0 45.505,0 15.175,0 30.343,0 45.512,0 15.175,0 30.343,0 45.511,0 15.177,0 30.345,0 45.514,0 15.175,0 30.343,0 45.511,0 15.169,0 30.345,0 45.514,0 15.168,0 30.343,0 45.512,0 15.168,0 30.345,0 45.513,0 15.168,0 30.343,0 45.512,0 15.168,0 30.336,0 45.513,0 15.168,0 30.337,0 45.512,0 15.168,0 30.336,0 45.513,0 15.168,0 30.337,0 45.505,0 15.175,0 30.344,0 45.512,0 15.177,0 30.345,0 45.513,0 15.175,0 30.344,0 45.512,0 15.177,0 30.345,0 45.512,0 15.168,0 30.345,0 45.513,0 15.168,0 30.343,0 45.512,0 15.168,0 30.345,0 45.513,0 15.169,0 30.337,0 45.512,0 15.168,0 30.337,0 45.513,0 15.169,0 30.337,0 45.512,0 15.168,0 30.337,0 45.513,0 15.169,0 30.337,0 45.505,0 15.175,0 30.344,0 45.512,0 15.177,0 30.345,0 45.514,0 15.175,0 30.343,0 45.511,0 15.177,0 30.345,0 45.514,0 15.168,0 30.343,0 45.511,0 15.169,0 30.345,0 45.514,0 15.168,0 30.343,0 45.511,0 15.169,0 30.337,0 45.512,0 15.168,0 30.337,0 45.514,0 15.168,0 30.336,0 45.511,0 15.169,0 30.337,0 45.514,0 15.168,0 30.336,0 45.505,0 15.175,0 30.343,0 45.511,0 15.177,0 30.345,0 45.514,0 15.175,0 30.343,0 45.511,0 15.169,0 30.346,0 45.514,0 15.168,0 30.343,0 45.512,0 15.168,0 30.345,0 45.513,0 15.168,0 30.343,0 45.512,0 15.168,0 30.336,0 45.513,0 15.168,0 30.337,0 45.512,0 15.168,0 30.336,0 45.512,0 15.168,0 30.336,0 45.513,0 15.168,0 30.337,0 45.505,0 15.175,0 30.343,0 45.512,0 15.176,0 30.345,0 45.513,0 15.175,0 30.343,0 45.512,0 15.168,0 30.345,0 45.513,0 15.168,0 30.344,0 45.512,0 15.168,0 30.345,0 45.513,0 15.169,0 30.337,0 45.512,0 15.168,0 30.337,0 45.513,0 15.169,0 30.337,0 45.512,0 15.168,0 30.337,0 45.514,0 15.168,0 30.336,0 45.504,0 15.176,0 30.344,0 45.512,0 15.175,0 30.344,0 45.512,0 15.177,0 30.345,0 45.513,0 15.175,0 30.344,0 45.512,0 15.168,0 30.345,0 45.513,0 15.169,0 30.344,0 45.512,0 15.168,0 30.345,0 45.514,0 15.168,0 30.336,0 45.511,0 15.169,0 30.337,0 45.514,0 15.168,0 30.336,0 45.511,0 15.169,0 30.337,0 45.514,0 15.168,0 30.336,0 45.505,0 15.175,0 30.343,0 45.511,0 15.177,0 30.346,0 45.514,0 15.175,0 30.343,0 45.512,0 15.175,0 30.343,0 45.511,0 15.169,0 30.345,0 45.514,0 15.168,0 30.343,0 45.511,0 15.169,0 30.346,0 45.514,0 15.168,0 30.336,0 45.512,0 15.168,0 30.336,0 45.513,0 15.168,0 30.337,0 45.512,0 15.168,0 30.336,0 45.513,0 15.168,0 30.337,0 45.505,0 15.175,0 30.343,0 45.512,0 15.177,0 30.345,0 45.513,0 15.175,0 30.344,0 45.512,0 15.168,0 30.345,0 45.513,0 15.169,0 30.344,0 45.512,0 15.168,0 30.343,0 45.512,0 15.168,0 30.345,0 45.513,0 15.168,0 30.337,0 45.512,0 15.168,0 30.336,0 45.513,0 15.169,0 30.337,0 45.512,0 15.168,0 30.337,0 45.513,0 15.169,0 30.337,0 45.505,0 15.175,0 30.344,0 45.512,0 15.177,0 30.345,0 45.513,0 15.176,0 30.344,0 45.512,0 15.168,0 30.345,0 45.514,0 15.168,0 30.343,0 45.511,0 15.169,0 30.345,0 45.514,0 15.168,0 30.343,0 45.511,0 15.169,0 30.337,0 45.512,0 15.168,0 30.337,0 45.514,0 15.168,0 30.336,0 45.511,0 15.169,0 30.337,0 45.505,0 15.177,0 30.345,0 45.514,0 15.175,0 30.343,0 45.511,0 15.177,0 30.345,0 45.514,0 15.175,0 30.343,0 45.511,0 15.169,0 30.345,0 45.514,0 15.168,0 30.343,0 45.512,0 15.168,0 30.345,0 45.513,0 15.168,0 30.343,0 45.512,0 15.168,0 30.336,0 45.513,0 15.168,0 30.337,0 45.512,0 15.168,0 30.336,0 45.511,0 15.169,0 30.337,0 45.505,0 15.177,0 30.346,0 45.514,0 15.175,0 30.343,0 45.512,0 15.176,0 30.345,0 45.513,0 15.175,0 30.343,0 45.512,0 15.168,0 30.345,0 45.513,0 15.168,0 30.343,0 45.512,0 15.168,0 30.345,0 45.513,0 15.169,0 30.344,0 45.512,0 15.168,0 30.337,0 45.513,0 15.169,0 30.337,0 45.512,0 15.168,0 30.337,-8.145 45.513,-135.97 15.169,-127.832 30.337,39.202 45.505,382.144 15.175,342.954 30.344,344.299 45.512,-234.012 15.175,-578.304 30.344,-1164.446 45.512,-586.471 15.177,577.977 30.345,1904.957 45.513,1702.19 15.175,-202.779 30.344,-1962.805 45.512,-2423.245 15.168,-460.434 30.345,1032.83 45.513,2155.821 15.169,1122.988 30.344,666.921 45.512,-769.794 15.168,-1436.729 30.345,-2453.427 45.513,-1277.087 15.169,1176.349 30.337,3488.535 45.512,3120.493 15.168,-368.029 30.337,-3184.401 45.514,-3884.195 15.168,-699.785 30.336,1508.351 45.511,3098.583 15.169,1590.232 30.337,958.078 45.514,-947.801 15.168,-1905.875 30.336,-3237.668 45.505,-1769.851 15.175,1467.815 30.343,4362.6 45.511,3956.448 15.177,-406.151 30.345,-3792.659 45.514,-4672.108 15.175,-879.452 30.343,1666.072 45.511,3541.848 15.176,1875.775 30.344,1228.172 45.512,-937.154 15.169,-2165.311 30.345,-3751.997 45.514,-2149.493 15.168,1602.507 30.343,4874.306 45.511,4491.659 15.169,-382.648 30.345,-4096.254 45.514,-5123.298 15.168,-1027.052 30.336,1670.012 45.511,3739.233 15.169,2069.23 30.337,1482.918 45.514,-836.133 15.168,-2319.041 30.336,-4126.38 45.512,-2468.236 15.168,1658.141 30.336,5198.757 45.513,4870.086 15.168,-328.672 30.337,-4241.623 45.505,-5397.846 15.175,-1156.221 30.343,1594.417 45.512,3806.47 15.176,2212.065 30.345,1726.547 45.513,-687.814 15.175,-2414.36 30.343,-4420.953 45.512,-2751.142 15.168,1669.799 30.345,5416.234 45.513,5158.166 15.168,-258.08 30.344,-4295.96 45.512,-5569.682 15.168,-1273.71 30.345,1473.325 45.512,3797.372 15.168,2324.054 30.345,1961.748 45.513,-512.209 15.168,-2473.959 30.337,-4665.201 45.512,-3010.703 15.168,1654.483 30.336,5566.325 45.513,5388.755 15.168,-177.579 30.337,-4292.76 45.512,-5675.836 15.168,-1383.077 30.336,1323.851 45.513,3739.31 15.169,2415.46 30.337,2190.118 45.505,-319.628 15.175,-2509.759 30.344,-4874.798 45.512,-3253.557 15.177,1621.24 30.345,5670.306 45.513,5579.53 15.175,-90.763 30.344,-4250.262 45.512,-5736.544 15.168,-1486.296 30.345,1155.425 45.513,3647.468 15.169,2492.031 30.344,2412.599 45.512,-115.908 15.168,-2528.507 30.345,-5058.718 45.514,-3483.454 15.168,1575.267 30.343,5740.484 45.511,5740.71 15.169,0.226 30.337,-4179.221 45.514,-5763.719 15.168,-1584.511 30.336,973.728 45.511,3530.943 15.169,2557.218 30.337,2629.694 45.512,95.388 15.168,-2534.306 30.337,-5222.374 45.505,-3702.624 15.177,1519.753 30.345,5784.453 45.513,5878.561 15.176,94.108 30.344,-4086.347 45.512,-5764.786 15.177,-1678.448 30.345,782.348 45.514,3395.516 15.175,2613.168 30.343,2841.685 45.511,311.888 15.169,-2529.797 30.345,-5369.248 45.514,-3912.436 15.168,1456.811 30.343,5807.161 45.511,5997.104 15.169,189.944 30.346,-3976.073 45.514,-5744.602 15.168,-1768.529 30.343,583.756 45.512,3245.063 15.168,2661.31 30.336,3048.693 45.513,531.943 15.168,-2516.746 30.337,-5501.612 45.512,-4113.733 15.168,1387.879 30.336,5811.942 45.513,6099.044 15.168,287.114 30.337,-3851.471 45.505,-5706.522 15.175,-1855.042 30.343,379.674 45.512,3082.303 15.175,2702.631 30.343,3250.732 45.511,754.335 15.177,-2496.397 30.346,-5621.021 45.514,-4307.033 15.175,1313.977 30.343,5801.147 45.512,6186.251 15.168,385.116 30.345,-3714.783 45.513,-5652.938 15.168,-1938.154 30.343,171.442 45.512,2909.235 15.168,2737.801 30.345,3447.763 45.513,978.115 15.168,-2469.639 30.344,-5728.581 45.512,-4492.68 15.168,1235.913 30.336,5776.521 45.513,6260.087 15.169,483.566 30.337,-3567.678 45.512,-5585.636 15.168,-2017.957 30.337,-39.919 45.513,2727.403 15.169,2767.334 30.337,3639.683 45.505,1202.513 15.175,-2437.169 30.344,-5825.067 45.512,-4670.841 15.177,1154.236 30.345,5739.34 45.513,6321.5 15.176,582.163 30.344,-3411.424 45.512,-5505.933 15.175,-2094.519 30.344,-253.569 45.512,2538 15.168,2791.565 30.345,3826.36 45.513,1426.877 15.169,-2399.484 30.344,-5911.053 45.512,-4841.611 15.168,1069.449 30.345,5690.601 45.513,6371.222 15.169,680.635 30.337,-3247.06 45.512,-5414.896 15.168,-2167.85 30.337,-468.824 45.513,2341.983 15.169,2810.818 30.337,4007.701 45.512,1650.693 15.169,-2357.017 30.337,-5986.984 45.514,-5005.033 15.168,981.941 30.336,5631.095 45.505,6409.832 15.175,778.745 30.343,-3075.451 45.511,-5313.398 15.177,-2237.936 30.345,-685.066 45.514,2140.216 15.175,2825.279 30.343,4183.517 45.511,1873.407 15.177,-2310.111 30.345,-6053.145 45.514,-5161.082 15.168,892.061 30.343,5561.479 45.512,6437.767 15.168,876.288 30.343,-2897.321 45.511,-5202.112 15.169,-2304.803 30.345,-901.802 45.514,1933.342 15.168,2835.13 30.336,4353.669 45.511,2094.631 15.169,-2259.04 30.337,-6109.815 45.514,-5309.74 15.168,800.086 30.336,5482.316 45.511,6455.392 15.169,973.078 30.337,-2713.278 45.514,-5081.672 15.168,-2368.382 30.337,-1118.503 45.505,1722.025 15.175,2840.528 30.343,4517.978 45.512,2313.925 15.176,-2204.054 30.345,-6157.182 45.513,-5450.924 15.175,706.271 30.343,5394.042 45.512,6462.987 15.168,1068.936 30.345,-2523.905 45.513,-4952.581 15.168,-2428.688 30.343,-1334.778 45.512,1506.793 15.168,2841.56 30.345,4676.307 45.513,2530.919 15.169,-2145.388 30.344,-6195.407 45.512,-5584.569 15.168,610.848 30.337,5297.083 45.512,6460.799 15.168,1163.718 30.336,-2329.665 45.513,-4815.324 15.168,-2485.648 30.337,-1550.178 45.512,1288.172 15.168,2838.363 30.336,4828.476 45.513,2745.266 15.168,-2083.222 30.337,-6224.635 45.505,-5710.597 15.175,514.038 30.343,5191.802 45.512,6449.054 15.177,1257.241 30.345,-2131.061 45.513,-4670.302 15.175,-2539.245 30.344,-1764.379 45.512,1066.611 15.168,2830.991 30.345,4974.326 45.513,2956.604 15.169,-2017.734 30.344,-6244.964 45.512,-5828.916 15.168,416.038 30.345,5078.544 45.513,6427.939 15.169,1349.385 30.337,-1928.494 45.512,-4517.933 15.168,-2589.438 30.337,-1976.974 45.514,842.574 15.168,2819.536 30.336,5113.703 45.511,3164.608 15.169,-1949.082 30.337,-6256.484 45.512,-5939.435 15.168,317.047 30.337,4957.63 45.505,6397.635 15.177,1439.993 30.345,-1722.384 45.513,-4358.562 15.175,-2636.178 30.344,-2187.651 45.512,616.446 15.177,2804.099 30.345,5246.475 45.513,3369.016 15.176,-1877.459 30.344,-6259.322 45.512,-6042.094 15.169,217.24 30.345,4829.348 45.514,6358.3 15.168,1528.94 30.343,-1513.108 45.511,-4192.55 15.169,-2679.439 30.345,-2396.061 45.514,388.65 15.168,2784.723 30.336,5372.468 45.511,3569.494 15.169,-1802.973 30.337,-6253.545 45.514,-6136.784 15.168,116.771 30.336,4693.986 45.512,6310.091 15.168,1616.102 30.336,-1301.053 45.513,-4020.233 15.168,-2719.179 30.337,-2601.891 45.505,159.574 15.175,2761.465 30.343,5491.548 45.512,3765.753 15.175,-1725.795 30.343,-6239.241 45.511,-6223.433 15.177,15.821 30.345,4551.827 45.514,6253.165 15.168,1701.347 30.343,-1086.55 45.511,-3841.923 15.169,-2755.373 30.346,-2804.862 45.514,-70.434 15.168,2734.414 30.343,5603.584 45.512,3957.525 15.168,-1646.047 30.345,-6216.497 45.513,-6301.956 15.168,-85.446 30.337,4403.113 45.512,6187.676 15.168,1784.563 30.336,-869.972 45.513,-3657.947 15.168,-2787.977 30.337,-3004.665 45.512,-301.015 15.168,2703.64 30.336,5708.474 45.513,4144.576 15.169,-1563.9 30.337,-6185.423 45.505,-6372.314 15.175,-186.891 30.344,4248.142 45.512,6113.775 15.177,1865.633 30.345,-651.655 45.513,-3468.622 15.175,-2816.966 30.344,-3201.004 45.512,-531.808 15.168,2669.197 30.343,5806.083 45.512,4326.62 15.168,-1479.462 30.345,-6146.073 45.513,-6434.412 15.168,-288.349 30.344,4087.168 45.512,6031.606 15.168,1944.447 30.345,-431.914 45.513,-3274.236 15.169,-2842.335 30.337,-3393.641 45.512,-762.477 15.168,2631.161 30.337,5896.296 45.513,4503.426 15.169,-1392.872 30.337,-6098.561 45.512,-6488.232 15.168,-389.658 30.337,3920.446 45.514,5941.344 15.168,2020.899 30.336,-211.092 45.504,-3075.114 15.176,-2864.032 30.344,-3582.272 45.512,-992.675 15.177,2589.606 30.345,5979.007 45.514,4674.745 15.175,-1304.261 30.343,-6042.992 45.511,-6533.691 15.169,-490.702 30.345,3748.251 45.514,5843.141 15.168,2094.887 30.343,10.478 45.511,-2871.572 15.169,-2882.041 30.344,-3766.651 45.512,-1222.07 15.168,2544.584 30.345,6054.133 45.514,4840.356 15.168,-1213.777 30.336,-5979.456 45.511,-6570.773 15.169,-591.326 30.337,3570.83 45.514,5737.152 15.168,2166.322 30.336,232.499 45.511,-2663.867 15.169,-2896.365 30.337,-3946.554 45.505,-1450.36 15.177,2496.183 30.345,6121.583 45.514,5000.04 15.175,-1121.543 30.343,-5908.077 45.511,-6599.448 15.177,-691.372 30.346,3388.457 45.514,5623.554 15.175,2235.098 30.343,454.665 45.512,-2452.325 15.168,-2907.002 30.345,-4121.712 45.513,-1677.226 15.168,2444.484 30.343,6181.303 45.512,5153.609 15.168,-1027.691 30.345,-5828.981 45.513,-6619.7 15.168,-790.716 30.344,3201.398 45.512,5502.533 15.168,2301.135 30.336,676.64 45.512,-2237.273 15.168,-2913.902 30.336,-4291.885 45.513,-1902.333 15.168,2389.555 30.337,6233.194 45.512,5300.833 15.168,-932.352 30.336,-5742.256 45.505,-6631.491 15.176,-889.226 30.345,3009.917 45.513,5374.249 15.175,2364.344 30.343,898.133 45.512,-2018.979 15.177,-2917.099 30.345,-4456.878 45.513,-2125.394 15.175,2331.483 30.344,6277.217 45.512,5441.534 15.168,-835.674 30.345,-5648.083 45.513,-6634.846 15.169,-986.766 30.344,2814.274 45.512,5238.91 15.168,2424.625 30.345,1118.828 45.513,-1797.767 15.169,-2916.595 30.337,-4616.449 45.512,-2346.102 15.168,2270.339 30.337,6313.312 45.513,5575.526 15.169,-737.774 30.337,-5546.567 45.512,-6629.762 15.169,-1083.195 30.337,2614.759 45.514,5096.695 15.168,2481.934 30.336,1338.445 45.503,-1573.92 15.177,-2912.376 30.345,-4770.414 45.513,-2564.183 15.175,2206.241 30.344,6341.449 45.512,5702.653 15.177,-638.798 30.345,-5437.866 45.513,-6616.268 15.175,-1178.402 30.344,2411.633 45.512,4947.814 15.168,2536.18 30.345,1556.696 45.514,-1347.759 15.168,-2904.465 30.343,-4918.541 45.511,-2779.303 15.169,2139.24 30.345,6361.6 45.514,5822.721 15.168,-538.864 30.336,-5322.126 45.511,-6594.365 15.169,-1272.254 30.337,2205.163 45.514,4792.448"
         style="display:inline;fill:none;stroke:#ff0000;stroke-width:36.88832474;stroke-miterlimit:4;stroke-dasharray:none;stroke-opacity:1"
         inkscape:connector-curvature="0" />
      <path
         transform="matrix(-0.68744444,0,0,-0.65780548,46098.653,91034.885)"
         clip-path="url(#clipPath75827-7)"
         id="path11974-3-7"
         title="ceil(x/10)*sin(100*x)*atan(x/0.2)"
         d="m 13623.459,50807.122 c 15.175,0 30.343,0 45.511,0 15.175,0 30.344,0 45.512,0 15.177,0 30.345,0 45.513,0 15.176,0 30.344,0 45.512,0 15.169,0 30.345,0 45.514,0 15.168,0 30.343,0 45.511,0 15.169,0 30.345,0 45.514,0 15.168,0 30.343,0 45.511,0 15.169,0 30.337,0 45.514,0 15.168,0 30.336,0 45.512,0 15.168,0 30.336,0 45.513,0 15.168,0 30.337,0 45.505,0 15.175,0 30.343,0 45.512,0 15.176,0 30.345,0 45.513,0 15.175,0 30.343,0 45.512,0 15.175,0 30.343,0 45.511,0 15.169,0 30.346,0 45.514,0 15.168,0 30.343,0 45.512,0 15.168,0 30.345,0 45.513,0 15.168,0 30.337,0 45.512,0 15.168,0 30.336,0 45.513,0 15.168,0 30.337,0 45.512,0 15.168,0 30.336,0 45.513,0 15.167,0 30.335,0 45.503,0 15.176,0 30.344,0 45.512,0 15.177,0 30.345,0 45.514,0 15.175,0 30.343,0 45.511,0 15.177,0 30.345,0 45.514,0 15.168,0 30.343,0 45.511,0 15.169,0 30.344,0 45.512,0 15.168,0 30.345,0 45.514,0 15.168,0 30.336,0 45.511,0 15.169,0 30.337,0 45.514,0 15.168,0 30.336,0 45.511,0 15.169,0 30.337,0 45.514,0 15.168,0 30.336,0 45.505,0 15.175,0 30.343,0 45.511,0 15.177,0 30.346,0 45.514,0 15.175,0 30.343,0 45.512,0 15.168,0 30.345,0 45.513,0 15.168,0 30.343,0 45.512,0 15.168,0 30.345,0 45.513,0 15.168,0 30.344,0 45.512,0 15.168,0 30.336,0 45.512,0 15.168,0 30.336,0 45.513,0 15.168,0 30.337,0 45.512,0 15.168,0 30.336,0 45.513,0 15.168,0 30.337,0 45.505,0 15.175,0 30.343,0 45.512,0 15.177,0 30.345,0 45.513,0 15.175,0 30.344,0 45.512,0 15.168,0 30.345,0 45.513,0 15.169,0 30.344,0 45.512,0 15.168,0 30.345,0 45.513,0 15.169,0 30.344,0 45.512,0 15.168,0 30.337,0 45.514,0 15.168,0 30.336,0 45.511,0 15.169,0 30.337,0 45.512,0 15.168,0 30.337,0 45.513,0 15.169,0 30.337,0 45.505,0 15.175,0 30.344,0 45.512,0 15.177,0 30.345,0 45.513,0 15.176,0 30.344,0 45.512,0 15.168,0 30.345,0 45.514,0 15.168,0 30.343,0 45.511,0 15.169,0 30.345,0 45.514,0 15.168,0 30.343,0 45.511,0 15.169,0 30.337,0 45.514,0 15.168,0 30.336,0 45.512,0 15.168,0 30.336,0 45.513,0 15.168,0 30.337,0 45.505,0 15.175,0 30.343,0 45.512,0 15.175,0 30.343,0 45.511,0 15.177,0 30.345,0 45.514,0 15.175,0 30.343,0 45.511,0 15.169,0 30.345,0 45.514,0 15.168,0 30.343,0 45.512,0 15.168,0 30.345,0 45.513,0 15.168,0 30.343,0 45.512,0 15.168,0 30.336,0 45.513,0 15.168,0 30.337,0 45.512,0 15.168,0 30.336,0 45.513,0 15.168,0 30.337,0 45.505,0 15.175,0 30.344,0 45.512,0 15.177,0 30.345,0 45.513,0 15.175,0 30.344,0 45.512,0 15.177,0 30.345,0 45.512,0 15.168,0 30.345,0 45.513,0 15.168,0 30.343,0 45.512,0 15.168,0 30.345,0 45.513,0 15.169,0 30.337,0 45.512,0 15.168,0 30.337,0 45.513,0 15.169,0 30.337,0 45.512,0 15.168,0 30.337,0 45.513,0 15.169,0 30.337,0 45.505,0 15.175,0 30.344,0 45.512,0 15.177,0 30.345,0 45.514,0 15.175,0 30.343,0 45.511,0 15.177,0 30.345,0 45.514,0 15.168,0 30.343,0 45.511,0 15.169,0 30.345,0 45.514,0 15.168,0 30.343,0 45.511,0 15.169,0 30.337,0 45.512,0 15.168,0 30.337,0 45.514,0 15.168,0 30.336,0 45.511,0 15.169,0 30.337,0 45.514,0 15.168,0 30.336,0 45.505,0 15.175,0 30.343,0 45.511,0 15.177,0 30.345,0 45.514,0 15.175,0 30.343,0 45.511,0 15.169,0 30.346,0 45.514,0 15.168,0 30.343,0 45.512,0 15.168,0 30.345,0 45.513,0 15.168,0 30.343,0 45.512,0 15.168,0 30.336,0 45.513,0 15.168,0 30.337,0 45.512,0 15.168,0 30.336,0 45.512,0 15.168,0 30.336,0 45.513,0 15.168,0 30.337,0 45.505,0 15.175,0 30.343,0 45.512,0 15.176,0 30.345,0 45.513,0 15.175,0 30.343,0 45.512,0 15.168,0 30.345,0 45.513,0 15.168,0 30.344,0 45.512,0 15.168,0 30.345,0 45.513,0 15.169,0 30.337,0 45.512,0 15.168,0 30.337,0 45.513,0 15.169,0 30.337,0 45.512,0 15.168,0 30.337,0 45.514,0 15.168,0 30.336,0 45.504,0 15.176,0 30.344,0 45.512,0 15.175,0 30.344,0 45.512,0 15.177,0 30.345,0 45.513,0 15.175,0 30.344,0 45.512,0 15.168,0 30.345,0 45.513,0 15.169,0 30.344,0 45.512,0 15.168,0 30.345,0 45.514,0 15.168,0 30.336,0 45.511,0 15.169,0 30.337,0 45.514,0 15.168,0 30.336,0 45.511,0 15.169,0 30.337,0 45.514,0 15.168,0 30.336,0 45.505,0 15.175,0 30.343,0 45.511,0 15.177,0 30.346,0 45.514,0 15.175,0 30.343,0 45.512,0 15.175,0 30.343,0 45.511,0 15.169,0 30.345,0 45.514,0 15.168,0 30.343,0 45.511,0 15.169,0 30.346,0 45.514,0 15.168,0 30.336,0 45.512,0 15.168,0 30.336,0 45.513,0 15.168,0 30.337,0 45.512,0 15.168,0 30.336,0 45.513,0 15.168,0 30.337,0 45.505,0 15.175,0 30.343,0 45.512,0 15.177,0 30.345,0 45.513,0 15.175,0 30.344,0 45.512,0 15.168,0 30.345,0 45.513,0 15.169,0 30.344,0 45.512,0 15.168,0 30.343,0 45.512,0 15.168,0 30.345,0 45.513,0 15.168,0 30.337,0 45.512,0 15.168,0 30.336,0 45.513,0 15.169,0 30.337,0 45.512,0 15.168,0 30.337,0 45.513,0 15.169,0 30.337,0 45.505,0 15.175,0 30.344,0 45.512,0 15.177,0 30.345,0 45.513,0 15.176,0 30.344,0 45.512,0 15.168,0 30.345,0 45.514,0 15.168,0 30.343,0 45.511,0 15.169,0 30.345,0 45.514,0 15.168,0 30.343,0 45.511,0 15.169,0 30.337,0 45.512,0 15.168,0 30.337,0 45.514,0 15.168,0 30.336,0 45.511,0 15.169,0 30.337,0 45.505,0 15.177,0 30.345,0 45.514,0 15.175,0 30.343,0 45.511,0 15.177,0 30.345,0 45.514,0 15.175,0 30.343,0 45.511,0 15.169,0 30.345,0 45.514,0 15.168,0 30.343,0 45.512,0 15.168,0 30.345,0 45.513,0 15.168,0 30.343,0 45.512,0 15.168,0 30.336,0 45.513,0 15.168,0 30.337,0 45.512,0 15.168,0 30.336,0 45.511,0 15.169,0 30.337,0 45.505,0 15.177,0 30.346,0 45.514,0 15.175,0 30.343,0 45.512,0 15.176,0 30.345,0 45.513,0 15.175,0 30.343,0 45.512,0 15.168,0 30.345,0 45.513,0 15.168,0 30.343,0 45.512,0 15.168,0 30.345,0 45.513,0 15.169,0 30.344,0 45.512,0 15.168,0 30.337,0 45.513,0 15.169,0 30.337,0 45.512,0 15.168,0 30.337,-8.145 45.513,-135.97 15.169,-127.832 30.337,39.202 45.505,382.144 15.175,342.954 30.344,344.299 45.512,-234.012 15.175,-578.304 30.344,-1164.446 45.512,-586.471 15.177,577.977 30.345,1904.957 45.513,1702.19 15.175,-202.779 30.344,-1962.805 45.512,-2423.245 15.168,-460.434 30.345,1032.83 45.513,2155.821 15.169,1122.988 30.344,666.921 45.512,-769.794 15.168,-1436.729 30.345,-2453.427 45.513,-1277.087 15.169,1176.349 30.337,3488.535 45.512,3120.493 15.168,-368.029 30.337,-3184.401 45.514,-3884.195 15.168,-699.785 30.336,1508.351 45.511,3098.583 15.169,1590.232 30.337,958.078 45.514,-947.801 15.168,-1905.875 30.336,-3237.668 45.505,-1769.851 15.175,1467.815 30.343,4362.6 45.511,3956.448 15.177,-406.151 30.345,-3792.659 45.514,-4672.108 15.175,-879.452 30.343,1666.072 45.511,3541.848 15.176,1875.775 30.344,1228.172 45.512,-937.154 15.169,-2165.311 30.345,-3751.997 45.514,-2149.493 15.168,1602.507 30.343,4874.306 45.511,4491.659 15.169,-382.648 30.345,-4096.254 45.514,-5123.298 15.168,-1027.052 30.336,1670.012 45.511,3739.233 15.169,2069.23 30.337,1482.918 45.514,-836.133 15.168,-2319.041 30.336,-4126.38 45.512,-2468.236 15.168,1658.141 30.336,5198.757 45.513,4870.086 15.168,-328.672 30.337,-4241.623 45.505,-5397.846 15.175,-1156.221 30.343,1594.417 45.512,3806.47 15.176,2212.065 30.345,1726.547 45.513,-687.814 15.175,-2414.36 30.343,-4420.953 45.512,-2751.142 15.168,1669.799 30.345,5416.234 45.513,5158.166 15.168,-258.08 30.344,-4295.96 45.512,-5569.682 15.168,-1273.71 30.345,1473.325 45.512,3797.372 15.168,2324.054 30.345,1961.748 45.513,-512.209 15.168,-2473.959 30.337,-4665.201 45.512,-3010.703 15.168,1654.483 30.336,5566.325 45.513,5388.755 15.168,-177.579 30.337,-4292.76 45.512,-5675.836 15.168,-1383.077 30.336,1323.851 45.513,3739.31 15.169,2415.46 30.337,2190.118 45.505,-319.628 15.175,-2509.759 30.344,-4874.798 45.512,-3253.557 15.177,1621.24 30.345,5670.306 45.513,5579.53 15.175,-90.763 30.344,-4250.262 45.512,-5736.544 15.168,-1486.296 30.345,1155.425 45.513,3647.468 15.169,2492.031 30.344,2412.599 45.512,-115.908 15.168,-2528.507 30.345,-5058.718 45.514,-3483.454 15.168,1575.267 30.343,5740.484 45.511,5740.71 15.169,0.226 30.337,-4179.221 45.514,-5763.719 15.168,-1584.511 30.336,973.728 45.511,3530.943 15.169,2557.218 30.337,2629.694 45.512,95.388 15.168,-2534.306 30.337,-5222.374 45.505,-3702.624 15.177,1519.753 30.345,5784.453 45.513,5878.561 15.176,94.108 30.344,-4086.347 45.512,-5764.786 15.177,-1678.448 30.345,782.348 45.514,3395.516 15.175,2613.168 30.343,2841.685 45.511,311.888 15.169,-2529.797 30.345,-5369.248 45.514,-3912.436 15.168,1456.811 30.343,5807.161 45.511,5997.104 15.169,189.944 30.346,-3976.073 45.514,-5744.602 15.168,-1768.529 30.343,583.756 45.512,3245.063 15.168,2661.31 30.336,3048.693 45.513,531.943 15.168,-2516.746 30.337,-5501.612 45.512,-4113.733 15.168,1387.879 30.336,5811.942 45.513,6099.044 15.168,287.114 30.337,-3851.471 45.505,-5706.522 15.175,-1855.042 30.343,379.674 45.512,3082.303 15.175,2702.631 30.343,3250.732 45.511,754.335 15.177,-2496.397 30.346,-5621.021 45.514,-4307.033 15.175,1313.977 30.343,5801.147 45.512,6186.251 15.168,385.116 30.345,-3714.783 45.513,-5652.938 15.168,-1938.154 30.343,171.442 45.512,2909.235 15.168,2737.801 30.345,3447.763 45.513,978.115 15.168,-2469.639 30.344,-5728.581 45.512,-4492.68 15.168,1235.913 30.336,5776.521 45.513,6260.087 15.169,483.566 30.337,-3567.678 45.512,-5585.636 15.168,-2017.957 30.337,-39.919 45.513,2727.403 15.169,2767.334 30.337,3639.683 45.505,1202.513 15.175,-2437.169 30.344,-5825.067 45.512,-4670.841 15.177,1154.236 30.345,5739.34 45.513,6321.5 15.176,582.163 30.344,-3411.424 45.512,-5505.933 15.175,-2094.519 30.344,-253.569 45.512,2538 15.168,2791.565 30.345,3826.36 45.513,1426.877 15.169,-2399.484 30.344,-5911.053 45.512,-4841.611 15.168,1069.449 30.345,5690.601 45.513,6371.222 15.169,680.635 30.337,-3247.06 45.512,-5414.896 15.168,-2167.85 30.337,-468.824 45.513,2341.983 15.169,2810.818 30.337,4007.701 45.512,1650.693 15.169,-2357.017 30.337,-5986.984 45.514,-5005.033 15.168,981.941 30.336,5631.095 45.505,6409.832 15.175,778.745 30.343,-3075.451 45.511,-5313.398 15.177,-2237.936 30.345,-685.066 45.514,2140.216 15.175,2825.279 30.343,4183.517 45.511,1873.407 15.177,-2310.111 30.345,-6053.145 45.514,-5161.082 15.168,892.061 30.343,5561.479 45.512,6437.767 15.168,876.288 30.343,-2897.321 45.511,-5202.112 15.169,-2304.803 30.345,-901.802 45.514,1933.342 15.168,2835.13 30.336,4353.669 45.511,2094.631 15.169,-2259.04 30.337,-6109.815 45.514,-5309.74 15.168,800.086 30.336,5482.316 45.511,6455.392 15.169,973.078 30.337,-2713.278 45.514,-5081.672 15.168,-2368.382 30.337,-1118.503 45.505,1722.025 15.175,2840.528 30.343,4517.978 45.512,2313.925 15.176,-2204.054 30.345,-6157.182 45.513,-5450.924 15.175,706.271 30.343,5394.042 45.512,6462.987 15.168,1068.936 30.345,-2523.905 45.513,-4952.581 15.168,-2428.688 30.343,-1334.778 45.512,1506.793 15.168,2841.56 30.345,4676.307 45.513,2530.919 15.169,-2145.388 30.344,-6195.407 45.512,-5584.569 15.168,610.848 30.337,5297.083 45.512,6460.799 15.168,1163.718 30.336,-2329.665 45.513,-4815.324 15.168,-2485.648 30.337,-1550.178 45.512,1288.172 15.168,2838.363 30.336,4828.476 45.513,2745.266 15.168,-2083.222 30.337,-6224.635 45.505,-5710.597 15.175,514.038 30.343,5191.802 45.512,6449.054 15.177,1257.241 30.345,-2131.061 45.513,-4670.302 15.175,-2539.245 30.344,-1764.379 45.512,1066.611 15.168,2830.991 30.345,4974.326 45.513,2956.604 15.169,-2017.734 30.344,-6244.964 45.512,-5828.916 15.168,416.038 30.345,5078.544 45.513,6427.939 15.169,1349.385 30.337,-1928.494 45.512,-4517.933 15.168,-2589.438 30.337,-1976.974 45.514,842.574 15.168,2819.536 30.336,5113.703 45.511,3164.608 15.169,-1949.082 30.337,-6256.484 45.512,-5939.435 15.168,317.047 30.337,4957.63 45.505,6397.635 15.177,1439.993 30.345,-1722.384 45.513,-4358.562 15.175,-2636.178 30.344,-2187.651 45.512,616.446 15.177,2804.099 30.345,5246.475 45.513,3369.016 15.176,-1877.459 30.344,-6259.322 45.512,-6042.094 15.169,217.24 30.345,4829.348 45.514,6358.3 15.168,1528.94 30.343,-1513.108 45.511,-4192.55 15.169,-2679.439 30.345,-2396.061 45.514,388.65 15.168,2784.723 30.336,5372.468 45.511,3569.494 15.169,-1802.973 30.337,-6253.545 45.514,-6136.784 15.168,116.771 30.336,4693.986 45.512,6310.091 15.168,1616.102 30.336,-1301.053 45.513,-4020.233 15.168,-2719.179 30.337,-2601.891 45.505,159.574 15.175,2761.465 30.343,5491.548 45.512,3765.753 15.175,-1725.795 30.343,-6239.241 45.511,-6223.433 15.177,15.821 30.345,4551.827 45.514,6253.165 15.168,1701.347 30.343,-1086.55 45.511,-3841.923 15.169,-2755.373 30.346,-2804.862 45.514,-70.434 15.168,2734.414 30.343,5603.584 45.512,3957.525 15.168,-1646.047 30.345,-6216.497 45.513,-6301.956 15.168,-85.446 30.337,4403.113 45.512,6187.676 15.168,1784.563 30.336,-869.972 45.513,-3657.947 15.168,-2787.977 30.337,-3004.665 45.512,-301.015 15.168,2703.64 30.336,5708.474 45.513,4144.576 15.169,-1563.9 30.337,-6185.423 45.505,-6372.314 15.175,-186.891 30.344,4248.142 45.512,6113.775 15.177,1865.633 30.345,-651.655 45.513,-3468.622 15.175,-2816.966 30.344,-3201.004 45.512,-531.808 15.168,2669.197 30.343,5806.083 45.512,4326.62 15.168,-1479.462 30.345,-6146.073 45.513,-6434.412 15.168,-288.349 30.344,4087.168 45.512,6031.606 15.168,1944.447 30.345,-431.914 45.513,-3274.236 15.169,-2842.335 30.337,-3393.641 45.512,-762.477 15.168,2631.161 30.337,5896.296 45.513,4503.426 15.169,-1392.872 30.337,-6098.561 45.512,-6488.232 15.168,-389.658 30.337,3920.446 45.514,5941.344 15.168,2020.899 30.336,-211.092 45.504,-3075.114 15.176,-2864.032 30.344,-3582.272 45.512,-992.675 15.177,2589.606 30.345,5979.007 45.514,4674.745 15.175,-1304.261 30.343,-6042.992 45.511,-6533.691 15.169,-490.702 30.345,3748.251 45.514,5843.141 15.168,2094.887 30.343,10.478 45.511,-2871.572 15.169,-2882.041 30.344,-3766.651 45.512,-1222.07 15.168,2544.584 30.345,6054.133 45.514,4840.356 15.168,-1213.777 30.336,-5979.456 45.511,-6570.773 15.169,-591.326 30.337,3570.83 45.514,5737.152 15.168,2166.322 30.336,232.499 45.511,-2663.867 15.169,-2896.365 30.337,-3946.554 45.505,-1450.36 15.177,2496.183 30.345,6121.583 45.514,5000.04 15.175,-1121.543 30.343,-5908.077 45.511,-6599.448 15.177,-691.372 30.346,3388.457 45.514,5623.554 15.175,2235.098 30.343,454.665 45.512,-2452.325 15.168,-2907.002 30.345,-4121.712 45.513,-1677.226 15.168,2444.484 30.343,6181.303 45.512,5153.609 15.168,-1027.691 30.345,-5828.981 45.513,-6619.7 15.168,-790.716 30.344,3201.398 45.512,5502.533 15.168,2301.135 30.336,676.64 45.512,-2237.273 15.168,-2913.902 30.336,-4291.885 45.513,-1902.333 15.168,2389.555 30.337,6233.194 45.512,5300.833 15.168,-932.352 30.336,-5742.256 45.505,-6631.491 15.176,-889.226 30.345,3009.917 45.513,5374.249 15.175,2364.344 30.343,898.133 45.512,-2018.979 15.177,-2917.099 30.345,-4456.878 45.513,-2125.394 15.175,2331.483 30.344,6277.217 45.512,5441.534 15.168,-835.674 30.345,-5648.083 45.513,-6634.846 15.169,-986.766 30.344,2814.274 45.512,5238.91 15.168,2424.625 30.345,1118.828 45.513,-1797.767 15.169,-2916.595 30.337,-4616.449 45.512,-2346.102 15.168,2270.339 30.337,6313.312 45.513,5575.526 15.169,-737.774 30.337,-5546.567 45.512,-6629.762 15.169,-1083.195 30.337,2614.759 45.514,5096.695 15.168,2481.934 30.336,1338.445 45.503,-1573.92 15.177,-2912.376 30.345,-4770.414 45.513,-2564.183 15.175,2206.241 30.344,6341.449 45.512,5702.653 15.177,-638.798 30.345,-5437.866 45.513,-6616.268 15.175,-1178.402 30.344,2411.633 45.512,4947.814 15.168,2536.18 30.345,1556.696 45.514,-1347.759 15.168,-2904.465 30.343,-4918.541 45.511,-2779.303 15.169,2139.24 30.345,6361.6 45.514,5822.721 15.168,-538.864 30.336,-5322.126 45.511,-6594.365 15.169,-1272.254 30.337,2205.163 45.514,4792.448"
         style="display:inline;fill:none;stroke:#ff0000;stroke-width:36.88832474;stroke-miterlimit:4;stroke-dasharray:none;stroke-opacity:1"
         inkscape:connector-curvature="0" />
    </g>
    <path
       inkscape:connector-curvature="0"
       id="circle5115-3-6-2-9-6-9-7"
       d="m 348.85915,829.94681 a 11.623823,11.623823 0 0 0 16.4155,0.86535 11.623823,11.623823 0 0 0 0.86565,-16.41574 11.623823,11.623823 0 0 0 -16.41549,-0.86541 11.623823,11.623823 0 0 0 -0.86566,16.4158 z"
       inkscape:transform-center-y="-13.276158"
       inkscape:transform-center-x="45.841302"
       style="display:inline;fill:url(#radialGradient76092);fill-opacity:1;stroke:#4da06f;stroke-width:0.06632277;stroke-miterlimit:4;stroke-dasharray:none;stroke-opacity:0.38359788" />
    <path
       style="fill:none;stroke:#000000;stroke-width:0.8756637;stroke-linecap:butt;stroke-linejoin:miter;stroke-miterlimit:4;stroke-dasharray:5.25398267, 0.87566378;stroke-dashoffset:0;stroke-opacity:1"
       d="m 322.97929,888.38357 59.76206,0 0.14758,0 10.76134,0"
       id="path75565-7-1"
       inkscape:connector-curvature="0"
       sodipodi:nodetypes="cccc" />
    <path
       style="fill:none;stroke:#000000;stroke-width:0.8756637;stroke-linecap:butt;stroke-linejoin:miter;stroke-miterlimit:4;stroke-dasharray:5.25398267, 0.87566378;stroke-dashoffset:0;stroke-opacity:1"
       d="m 313.84685,914.55114 69.88123,0 0.14759,0 17.26127,0"
       id="path75565-8-48"
       inkscape:connector-curvature="0"
       sodipodi:nodetypes="cccc" />
    <path
       style="fill:none;stroke:#000000;stroke-width:0.8756637;stroke-linecap:butt;stroke-linejoin:miter;stroke-miterlimit:4;stroke-dasharray:5.25398267, 0.87566378;stroke-dashoffset:0;stroke-opacity:1"
       d="m 306.35356,940.51251 77.36006,0 0.15,0 25.08107,0"
       id="path75565-8-4-7"
       inkscape:connector-curvature="0"
       sodipodi:nodetypes="cccc" />
    <path
       style="fill:none;stroke:#000000;stroke-width:0.8756637;stroke-linecap:butt;stroke-linejoin:miter;stroke-miterlimit:4;stroke-dasharray:5.25398267, 0.87566378;stroke-dashoffset:0;stroke-opacity:1"
       d="m 301.21565,966.49243 80.77811,0 0.1494,0 33.66592,0"
       id="path75565-8-4-1-2"
       inkscape:connector-curvature="0"
       sodipodi:nodetypes="cccc" />
    <path
       style="fill:none;stroke:#000000;stroke-width:0.8756637;stroke-linecap:butt;stroke-linejoin:miter;stroke-miterlimit:4;stroke-dasharray:5.25398267, 0.87566378;stroke-dashoffset:0;stroke-opacity:1"
       d="m 294.70246,992.46865 85.87987,0 0.14879,0 38.78817,0"
       id="path75565-8-4-9-5"
       inkscape:connector-curvature="0"
       sodipodi:nodetypes="cccc" />
    <flowRoot
       xml:space="preserve"
       id="flowRoot9952-4-0"
       style="font-style:normal;font-weight:normal;font-size:64.71656799px;line-height:125%;font-family:Sans;letter-spacing:0px;word-spacing:0px;fill:#000000;fill-opacity:1;stroke:none"
       transform="matrix(0.60240361,0,0,0.60240361,7326.4968,-2227.5862)"><flowRegion
         id="flowRegion9954-7-90"><rect
           id="rect9956-0-2"
           width="158.76598"
           height="142.76704"
           x="-12143.818"
           y="4926.2231"
           style="font-size:64.71656799px"
           ry="0" /></flowRegion><flowPara
         id="flowPara9958-7-9">A</flowPara></flowRoot>    <flowRoot
       xml:space="preserve"
       id="flowRoot9952-4-0-1"
       style="font-style:normal;font-weight:normal;font-size:1501.02990723px;line-height:125%;font-family:Sans;letter-spacing:0px;word-spacing:0px;fill:#000000;fill-opacity:1;stroke:none"
       transform="matrix(0.0259725,0,0,0.0259725,285.40799,741.38504)"><flowRegion
         id="flowRegion9954-7-90-3"><rect
           id="rect9956-0-2-6"
           width="3682.4028"
           height="3311.325"
           x="-49.780926"
           y="-154.00208"
           style="font-size:1501.02990723px"
           ry="0" /></flowRegion><flowPara
         id="flowPara9958-7-9-2">B</flowPara></flowRoot>    <path
       style="fill:none;stroke:#000000;stroke-width:2.15852022;stroke-linecap:butt;stroke-linejoin:miter;stroke-miterlimit:4;stroke-dasharray:none;stroke-opacity:1;marker-end:url(#Arrow2Lend-2)"
       d="m 612.54818,1042.7192 0,133.2035 -121.12468,0 -1.15361,0"
       id="path8504-6-7"
       inkscape:connector-curvature="0"
       clip-path="url(#clipPath4341)"
       transform="matrix(0,1,-1,0,1775.122,261.70137)" />
  </g>
</svg>
